<?xml version="1.0" encoding="UTF-8" standalone="no"?>
<!-- Created with Inkscape (http://www.inkscape.org/) -->

<svg
   xmlns:dc="http://purl.org/dc/elements/1.1/"
   xmlns:cc="http://creativecommons.org/ns#"
   xmlns:rdf="http://www.w3.org/1999/02/22-rdf-syntax-ns#"
   xmlns:svg="http://www.w3.org/2000/svg"
   xmlns="http://www.w3.org/2000/svg"
   xmlns:sodipodi="http://sodipodi.sourceforge.net/DTD/sodipodi-0.dtd"
   xmlns:inkscape="http://www.inkscape.org/namespaces/inkscape"
   id="svg2"
   version="1.1"
   inkscape:version="0.91 r13725"
   xml:space="preserve"
   width="587.95001"
   height="439.5"
   viewBox="0 0 587.95001 439.5"
   sodipodi:docname="astroboy.svg"><metadata
     id="metadata8"><rdf:RDF><cc:Work
         rdf:about=""><dc:format>image/svg+xml</dc:format><dc:type
           rdf:resource="http://purl.org/dc/dcmitype/StillImage" /><dc:title></dc:title></cc:Work></rdf:RDF></metadata><defs
     id="defs6" /><sodipodi:namedview
     pagecolor="#ffffff"
     bordercolor="#666666"
     borderopacity="1"
     objecttolerance="10"
     gridtolerance="10"
     guidetolerance="10"
     inkscape:pageopacity="0"
     inkscape:pageshadow="2"
     inkscape:window-width="1046"
     inkscape:window-height="889"
     id="namedview4"
     showgrid="false"
     inkscape:zoom="1.0545114"
     inkscape:cx="260.78428"
     inkscape:cy="219.75"
     inkscape:window-x="1580"
     inkscape:window-y="43"
     inkscape:window-maximized="0"
     inkscape:current-layer="g10" /><g
     id="g10"
     inkscape:groupmode="layer"
     inkscape:label="ink_ext_XXXXXX"
     transform="matrix(1.25,0,0,-1.25,0,439.5)"><g
       id="g12"
       transform="scale(0.1,0.1)"><path
         d="m 2058.66,466.801 c 0,0 56.13,-70.762 -114.7,-175.699 -170.82,-104.942 -241.59,-124.454 -490.5,-114.704 -248.91,9.762 -617.405,92.731 -636.929,100.063 0,0 17.082,26.84 148.86,80.519 0,0 -156.18,-4.878 -158.618,46.372 0,0 1117.667,646.678 1190.877,175.699 0,0 53.69,-100.051 61.01,-112.25"
         style="fill:#f9b013;fill-opacity:1;fill-rule:nonzero;stroke:none"
         id="path14"
         inkscape:connector-curvature="0" /><path
         d="m 2058.66,466.801 c 0,0 56.13,-70.762 -114.7,-175.699 -170.82,-104.942 -241.59,-124.454 -490.5,-114.704 -248.91,9.762 -617.405,92.731 -636.929,100.063 0,0 17.082,26.84 148.86,80.519 0,0 -156.18,-4.878 -158.618,46.372 0,0 1117.667,646.678 1190.877,175.699 0,0 53.69,-100.051 61.01,-112.25 z"
         style="fill:none;stroke:#ed1b28;stroke-width:5.07246017;stroke-linecap:butt;stroke-linejoin:miter;stroke-miterlimit:4;stroke-dasharray:none;stroke-opacity:1"
         id="path16"
         inkscape:connector-curvature="0" /><path
         d="m 1980.57,430.199 c 0,0 -109.82,-183.027 -431.94,-183.027 -322.12,0 -614.958,24.398 -563.712,58.566 51.242,34.16 500.262,380.692 744.292,297.723 244.04,-82.969 251.36,-124.469 251.36,-173.262"
         style="fill:#fcd37e;fill-opacity:1;fill-rule:nonzero;stroke:none"
         id="path18"
         inkscape:connector-curvature="0" /><path
         d="m 1882.96,403.352 c 0,0 -14.64,-46.372 -200.11,-78.09 -185.47,-31.723 -390.59,-4.883 -370.93,12.199 19.66,17.078 195.22,73.211 195.22,73.211 0,0 -224.5,-34.16 -158.61,-4.883 65.88,29.293 222.07,58.57 231.83,58.57 9.76,0 -286.68,-19.519 -203.13,4.883 83.55,24.399 383.71,90.289 456.92,58.567 73.21,-31.727 68.33,-95.18 48.81,-124.457"
         style="fill:#fffbb0;fill-opacity:1;fill-rule:nonzero;stroke:none"
         id="path20"
         inkscape:connector-curvature="0" /><path
         d="m 1504.71,591.25 c 0,0 46.36,-56.121 -268.44,-173.258 C 921.465,300.852 833.613,374.07 833.613,374.07 c 0,0 -297.718,-12.199 -263.554,7.321 34.164,19.519 68.332,34.16 68.332,34.16 0,0 -90.289,26.847 -178.149,24.398 -87.847,-2.437 -173.262,0 -197.664,12.211 -24.402,12.199 -58.57,29.289 -58.57,29.289 0,0 -246.4689,-14.648 -195.22284,14.633 51.25004,29.277 439.25784,170.816 439.25784,170.816 0,0 -148.859,9.762 -85.41,39.051 63.453,29.281 295.277,136.66 451.461,200.102 156.179,63.461 380.696,200.109 622.286,48.82 241.59,-151.312 68.33,-363.621 68.33,-363.621"
         style="fill:#f9b013;fill-opacity:1;fill-rule:nonzero;stroke:none"
         id="path22"
         inkscape:connector-curvature="0" /><path
         d="m 1504.71,591.25 c 0,0 46.36,-56.121 -268.44,-173.258 C 921.465,300.852 833.613,374.07 833.613,374.07 c 0,0 -297.718,-12.199 -263.554,7.321 34.164,19.519 68.332,34.16 68.332,34.16 0,0 -90.289,26.847 -178.149,24.398 -87.847,-2.437 -173.262,0 -197.664,12.211 -24.402,12.199 -58.57,29.289 -58.57,29.289 0,0 -246.4689,-14.648 -195.22284,14.633 51.25004,29.277 439.25784,170.816 439.25784,170.816 0,0 -148.859,9.762 -85.41,39.051 63.453,29.281 295.277,136.66 451.461,200.102 156.179,63.461 380.696,200.109 622.286,48.82 241.59,-151.312 68.33,-363.621 68.33,-363.621 z"
         style="fill:none;stroke:#ed1b28;stroke-width:5.07246017;stroke-linecap:butt;stroke-linejoin:miter;stroke-miterlimit:4;stroke-dasharray:none;stroke-opacity:1"
         id="path24"
         inkscape:connector-curvature="0" /><path
         d="m 1438.82,596.141 c 0,0 -143.98,-131.782 -261.11,-151.301 -117.14,-19.531 -241.601,-53.692 -231.843,-19.531 9.762,34.171 29.285,68.332 -14.64,63.453 -43.926,-4.883 -246.469,-73.211 -202.543,-29.282 43.921,43.918 109.812,68.329 46.367,68.329 -63.453,0 -593,-24.411 -475.867,19.511 117.132,43.93 429.5,82.981 380.687,87.86 -48.801,4.879 -190.34,17.082 -126.891,43.929 63.446,26.84 234.27,70.77 200.106,73.2 -34.164,2.453 78.09,102.5 241.594,158.632 163.5,56.118 658.88,134.209 444.14,-314.8"
         style="fill:#fcd37e;fill-opacity:1;fill-rule:nonzero;stroke:none"
         id="path26"
         inkscape:connector-curvature="0" /><path
         d="m 1382.69,669.34 c -7.62,-64.52 -278.2,-173.258 -273.31,-143.981 4.87,29.289 141.53,124.461 82.96,104.942 C 1133.77,610.781 965.391,540 989.797,571.73 c 24.403,31.731 170.823,95.168 131.773,90.29 -39.04,-4.872 -312.359,-70.77 -253.793,-43.918 58.571,26.839 290.403,104.929 239.153,92.73 -51.24,-12.203 -265.992,-36.602 -207.422,-14.641 58.562,21.957 283.072,58.571 229.392,58.571 -53.69,0 -229.392,-9.762 -180.587,19.519 48.804,29.278 470.977,204.989 434.377,-104.941"
         style="fill:#fffbb0;fill-opacity:1;fill-rule:nonzero;stroke:none"
         id="path28"
         inkscape:connector-curvature="0" /><path
         d="m 4423.24,3001.19 -263.77,456.52 -38.03,58.33 c -32.22,-106.27 -64.17,-212.54 -119.21,-309.42 -232.83,43.88 -475.79,4.82 -651.81,-142.03 -53.01,-44.64 -85.98,-99.67 -126.82,-147.1 l -329.7,-91.3 -126.82,-38.05 0,-5.07 c 113.89,-102.46 224.72,-213.3 327.18,-327.18 l 2.54,-20.28 c -18.52,-15.22 -39.56,-25.12 -55.8,-45.66 -54.02,-58.59 -58.84,-153.44 -25.37,-223.19 61.89,-109.56 177.54,-184.13 304.35,-172.46 7.11,-7.36 8.37,-17 12.69,-25.36 3.3,-22.07 42.35,-42.36 17.75,-63.41 -95.62,55.8 -205.44,92.58 -324.64,76.09 -274.16,67.72 -567.35,89.53 -869.93,88.77 -227.24,38.8 -475.8,64.41 -715.22,35.5 -175.5,83.7 -380.94,11.42 -545.282,-45.65 -45.91,-8.12 -90.293,2.79 -131.887,12.68 -45.906,3.05 -100.941,28.66 -142.023,-2.53 -17.25,-28.16 -14.208,-67.72 0,-96.38 10.648,-39.31 67.71,-41.59 65.941,-83.69 21.051,-28.66 54.523,-37.8 86.23,-45.66 42.86,-8.87 82.934,5.08 124.274,7.61 19.019,-20.54 37.539,-41.09 40.578,-68.48 -0.254,-14.2 -11.918,-28.4 -25.359,-32.97 -62.649,3.55 -118.954,-8.62 -159.786,-58.33 -25.101,-31.45 -26.886,-77.1 -12.679,-114.14 29.168,-38.79 88.008,-32.2 131.883,-25.36 90.546,24.86 153.7,-31.7 233.33,-40.58 96.89,8.88 179.06,52.76 263.77,91.31 208.73,-56.31 442.32,-60.36 672.1,-58.34 l 332.24,-10.14 360.15,-7.61 c -37.27,-24.6 -77.86,-52.5 -116.67,-78.63 -111.83,3.81 -202.64,-63.14 -278.98,-147.1 l -107.18,-38.97 c -18.51,-6.55 -34.33,-12.52 -47.33,-17.62 -1.51,0.14 -3.01,0.35 -4.51,0.61 -19.94,11.93 -39.29,19.91 -56.47,25.23 -21.36,7.49 -30.07,9.47 -48.28,10.47 -145.07,16.48 -282.28,-39.32 -355.07,-167.4 -73.29,-24.34 -143.04,-56.3 -213.04,-88.77 -89.28,-51.731 -225.47,-70.239 -251.09,-195.278 -29.92,-96.121 11.16,-190.473 86.23,-253.633 80.91,-75.57 202.9,-37.277 304.35,-32.969 l 5.07,-5.07 c -6.84,-17.75 1.78,-35.508 2.54,-53.258 15.22,-62.652 83.19,-116.91 144.57,-126.812 169.67,12.172 337.06,29.16 499.63,58.332 44.89,-5.582 93.09,-10.903 139.49,-5.082 112.11,12.691 229.03,89.289 261.23,202.902 11.67,14.977 35,12.18 50.73,22.828 77.36,4.57 151.67,17 218.11,48.192 48.45,40.578 112.87,42.609 167.39,68.476 l 2.54,-2.539 c -9.38,-24.598 -22.31,-47.418 -27.9,-73.547 -17.49,-23.332 -49.45,-38.551 -68.47,-63.41 -20.54,-42.094 -73.56,-71.012 -86.23,-116.66 -0.51,-20.543 -12.17,-51.742 10.14,-65.942 21.55,-11.66 46.42,-0.75 65.94,7.602 8.63,-6.582 11.92,-15.211 17.75,-22.82 1.56,-17.973 2.06,-36.41 4.6,-54.032 0.41,-3.171 0.99,-6.55 1.72,-10.082 1.85,-9.238 4.44,-18.179 8.26,-26.617 5.74,-13.89 14.31,-29.121 26.95,-45.011 3.26,-25.5 -8.32,-55.282 1.59,-79.84 11.17,-23.84 35.77,-36.782 60.87,-38.051 36.02,-40.32 -0.5,-110.5704 50.73,-144.5587 22.31,-19.78124 54.02,-23.83983 83.69,-17.749987 17.25,9.390587 25.87,26.890587 25.36,45.648487 23.34,24.8632 18.78,61.1332 22.83,93.8402 64.17,59.863 95.37,137.98 91.3,228.261 127.33,130.871 213.3,283.301 286.6,438.77 100.18,154.199 197.57,309.68 235.86,489.49 32.48,111.09 -13.69,221.68 -101.44,289.13 7.86,5.84 16.74,9.14 25.36,12.68 170.44,-33.22 357.61,-15.72 492.03,83.7 73.55,53.78 130.87,129.35 109.05,220.66 90.81,101.19 161.82,210.51 202.91,332.24 84.71,290.65 -36.02,567.87 -253.63,765.95"
         style="fill:#231f20;fill-opacity:1;fill-rule:nonzero;stroke:none"
         id="path30"
         inkscape:connector-curvature="0" /><path
         d="m 3310.06,2353.6 c -33.86,28.64 -93.73,41.65 -119.78,41.65 -26.03,0 -54.67,-10.41 -31.24,28.65 8.67,14.44 31.58,21.75 57,25.25 -0.85,0.03 -1.71,0.11 -2.58,0.13 -22.66,0.08 -45.42,-2.81 -67.26,-8.84 -24.03,-15.11 -45.5,-34.44 -57.46,-50.39 -23.43,-31.25 -7.81,-44.26 28.64,-52.08 36.45,-7.81 80.72,-28.63 111.97,-52.07 31.23,-23.43 80.71,-104.15 88.51,-132.78 7.81,-28.64 23.43,-44.27 41.66,-13.02 18.23,31.24 23.43,78.11 18.23,153.61 -0.23,3.34 -0.6,6.64 -1.04,9.92 -3.62,-2.87 -7.63,-4.71 -11.98,-4.71 -20.83,0 -20.83,26.04 -54.67,54.68"
         style="fill:#fcd5c5;fill-opacity:1;fill-rule:nonzero;stroke:none"
         id="path32"
         inkscape:connector-curvature="0" /><path
         d="m 3216.04,2449.15 c -25.42,-3.5 -48.33,-10.81 -57,-25.25 -23.43,-39.06 5.21,-28.65 31.24,-28.65 26.05,0 85.92,-13.01 119.78,-41.65 33.84,-28.64 33.84,-54.68 54.67,-54.68 4.35,0 8.36,1.84 11.98,4.71 -4.63,35.15 -20.26,67.42 -34.95,91.11 -34.88,31.49 -78.23,52.53 -125.72,54.41"
         style="fill:#fde4d9;fill-opacity:1;fill-rule:nonzero;stroke:none"
         id="path34"
         inkscape:connector-curvature="0" /><path
         d="m 3609.47,1770.38 c -145.81,164.03 -205.68,382.74 -98.93,544.17 0,0 -41.66,164.02 44.25,330.66 70.94,137.58 182.72,284.02 440.8,380.73 -263.47,-21.56 -488.55,-187.11 -624.89,-416.88 42.37,-12.17 88.02,-16.99 131.89,-25.36 l 7.61,-7.61 c -59.85,-56.05 -109.3,-120.72 -142.03,-190.22 7.87,-13.18 16.74,-25.61 20.29,-40.58 l -2.53,-2.53 c -12.42,19.11 -27.31,36.76 -44.17,51.98 16.05,-25.9 33.3,-62.06 35.99,-101.03 5.2,-75.5 0,-122.37 -18.23,-153.61 -18.23,-31.25 -33.85,-15.62 -41.66,13.02 -7.8,28.63 -57.28,109.35 -88.51,132.78 -31.25,23.44 -75.52,44.26 -111.97,52.07 -36.45,7.82 -52.07,20.83 -28.64,52.08 11.96,15.95 33.43,35.28 57.46,50.39 -47.07,-12.99 -89.81,-40.65 -117.88,-85 -41.34,-63.15 -23.08,-158.26 17.74,-215.58 79.4,-102.46 197.59,-162.83 327.18,-124.28 l 2.54,-2.53 c -12.42,-9.39 -27.14,-13.45 -40.58,-20.3 86.12,-170.69 254.11,-273.86 419.74,-343.4 -49.28,30.71 -100.48,70.41 -145.47,121.03"
         style="fill:#f2bda9;fill-opacity:1;fill-rule:nonzero;stroke:none"
         id="path36"
         inkscape:connector-curvature="0" /><path
         d="m 4414.01,1929.2 c 0,0 137.99,88.52 197.87,257.77 55.01,155.43 68.26,436.05 -93.34,575.59 -28.08,-13.04 -56.11,-26.13 -85.15,-36.83 -53.51,92.06 -115.15,180.83 -172.46,271.38 -42.36,16.99 -91.31,18.51 -136.97,27.89 -43.63,4.18 -86.48,4.37 -128.37,0.94 -258.08,-96.71 -369.86,-243.15 -440.8,-380.73 -85.91,-166.64 -44.25,-330.66 -44.25,-330.66 -106.75,-161.43 -46.88,-380.14 98.93,-544.17 44.99,-50.62 96.19,-90.32 145.47,-121.03 25.1,-10.54 50.14,-20.31 74.83,-29.41 45.53,-11.83 92.65,-19.83 140.02,-23.39 83.81,5.8 185.11,22.22 259.36,64.47 151.01,85.92 231.72,164.03 184.86,268.18"
         style="fill:#fcd5c5;fill-opacity:1;fill-rule:nonzero;stroke:none"
         id="path38"
         inkscape:connector-curvature="0" /><path
         d="m 4694.62,2444.21 c -13.44,125.29 -46.15,244.99 -134.42,337.32 -13.99,-6.12 -27.83,-12.54 -41.66,-18.97 161.6,-139.54 148.35,-420.16 93.34,-575.59 -59.88,-169.25 -197.87,-257.77 -197.87,-257.77 46.86,-104.15 -33.85,-182.26 -184.86,-268.18 -74.25,-42.25 -175.55,-58.67 -259.36,-64.47 163.96,-12.31 330.93,28.78 445.84,150.19 33.74,45.15 74.32,100.44 43.12,159.78 139.49,154.21 240.94,323.89 235.87,537.69"
         style="fill:#fde4d9;fill-opacity:1;fill-rule:nonzero;stroke:none"
         id="path40"
         inkscape:connector-curvature="0" /><path
         d="m 4130.82,2587.99 c -6.5,26.04 -14.44,14.45 -19.86,-14.44 -5.42,-28.89 -10.83,-61.39 -14.45,-77.64 -3.6,-16.25 -14.44,-25.28 16.25,-25.28 30.7,0 39.73,14.44 37.92,45.14 -1.8,30.69 -18.05,65 -19.86,72.22"
         style="fill:#f2bda9;fill-opacity:1;fill-rule:nonzero;stroke:none"
         id="path42"
         inkscape:connector-curvature="0" /><path
         d="m 4289.71,2566.32 c 0,0 9.02,-43.33 -10.83,-61.38 -19.87,-18.06 -19.87,-21.67 -65,-21.67 0,0 59.58,46.94 75.83,83.05"
         style="fill:#f2bda9;fill-opacity:1;fill-rule:nonzero;stroke:none"
         id="path44"
         inkscape:connector-curvature="0" /><path
         d="m 4464.84,2364.1 c 0,0 -36.11,-30.69 -37.91,-21.66 -1.8,9.02 -7.22,21.66 -5.42,30.69 1.81,9.03 95.7,90.28 113.75,27.08 18.05,-63.19 -59.59,-19.86 -70.42,-36.11"
         style="fill:#f2bda9;fill-opacity:1;fill-rule:nonzero;stroke:none"
         id="path46"
         inkscape:connector-curvature="0" /><path
         d="m 3818.46,1954.25 -21.66,-1.81 c 0,0 1.8,43.34 39.72,43.34 37.91,0 50.56,9.02 48.75,-9.03 l -66.81,-32.5"
         style="fill:#f2bda9;fill-opacity:1;fill-rule:nonzero;stroke:none"
         id="path48"
         inkscape:connector-curvature="0" /><path
         d="m 3903.33,1786.33 c -10.28,3.43 -25.28,-1.8 -19.87,-16.25 5.42,-14.44 18.06,-18.05 30.69,-10.83 12.65,7.22 0,23.47 -10.82,27.08"
         style="fill:#f2bda9;fill-opacity:1;fill-rule:nonzero;stroke:none"
         id="path50"
         inkscape:connector-curvature="0" /><path
         d="m 3832.91,2232.3 c -23.35,2.46 -30.69,-10.83 -25.27,-28.89 5.41,-18.05 16.24,-21.67 30.68,-18.05 14.45,3.6 28.9,43.33 -5.41,46.94"
         style="fill:#fde4d9;fill-opacity:1;fill-rule:nonzero;stroke:none"
         id="path52"
         inkscape:connector-curvature="0" /><path
         d="m 4372.76,1914.53 c 0,-10.98 -9.29,-19.87 -20.76,-19.87 -11.47,0 -20.77,8.89 -20.77,19.87 0,10.96 9.3,19.86 20.77,19.86 11.47,0 20.76,-8.9 20.76,-19.86"
         style="fill:#fde4d9;fill-opacity:1;fill-rule:nonzero;stroke:none"
         id="path54"
         inkscape:connector-curvature="0" /><path
         d="m 3910.93,3153.36 c -141.27,-21.81 -284.31,-39.06 -410.87,-96.38 -12.69,-3.3 -25.37,-14.46 -38.05,-10.14 8.37,18.51 28.16,30.68 43.12,43.11 90.8,53.52 194.02,77.1 304.34,83.7 34.24,-5.58 76.86,3.29 101.46,-20.29"
         style="fill:#ffffff;fill-opacity:1;fill-rule:nonzero;stroke:none"
         id="path56"
         inkscape:connector-curvature="0" /><path
         d="m 4040.27,3143.21 c -17.99,-15.21 -43.87,-3.8 -63.4,0 -1.77,2.54 -6.09,4.06 -5.07,7.61 19.78,12.69 54.27,10.15 68.47,-7.61"
         style="fill:#ffffff;fill-opacity:1;fill-rule:nonzero;stroke:none"
         id="path58"
         inkscape:connector-curvature="0" /><path
         d="m 3979.4,2808.43 -2.53,-17.75 2.53,17.75"
         style="fill:#231f20;fill-opacity:1;fill-rule:nonzero;stroke:none"
         id="path60"
         inkscape:connector-curvature="0" /><path
         d="m 4109.54,2623.55 6.82,2.27 c -2.53,-0.53 -4.78,-1.32 -6.82,-2.27"
         style="fill:#231f20;fill-opacity:1;fill-rule:nonzero;stroke:none"
         id="path62"
         inkscape:connector-curvature="0" /><path
         d="m 4121.44,2699.38 c 27.13,-47.44 38.79,-101.45 58.33,-152.18 -8.12,96.37 -57.83,175.51 -103.99,256.16 -30.94,44.39 -75.57,87.5 -126.82,98.91 -106.25,18.01 -189.45,-39.82 -258.69,-114.13 54.53,43.37 112.36,89.79 180.07,106.52 85.99,18.52 157,-31.45 202.9,-101.45 -1.78,-10.4 -5.57,-19.78 -12.67,-27.89 -26.38,10.65 -52.5,21.05 -83.7,20.29 -26.13,-10.15 -54.78,-14.97 -78.63,-30.44 -8.11,9.38 -4.56,23.58 -12.67,32.97 3.29,-10.91 6.84,-22.07 10.13,-32.97 -20.53,-14.96 -44.12,-33.23 -58.33,-53.26 -86.74,-91.81 -119.7,-243.22 -63.41,-357.61 46.68,-21.81 90.3,-51.23 142.04,-60.87 107.79,47.93 149.89,163.08 172.46,266.3 5.14,24.77 -2.83,62.65 21.08,73.82 l -8.4,-2.8 c -10.14,17.25 -1.27,42.1 -7.6,60.87 7.86,9.13 18.26,12.93 27.9,17.76 z m -58.34,63.4 c 7.36,4.82 3.3,19.27 15.22,17.75 15.98,-24.35 27.65,-50.47 40.58,-76.08 -5.33,-10.4 -16.23,-7.36 -22.84,-15.22 -7.09,26.12 -14.45,52.25 -32.96,73.55"
         style="fill:#231f20;fill-opacity:1;fill-rule:nonzero;stroke:none"
         id="path64"
         inkscape:connector-curvature="0" /><path
         d="m 3974.33,2757.71 c -93.08,-43.63 -163.59,-144.57 -157.25,-248.55 22.83,4.31 44.14,12.17 68.49,12.68 l -53.27,-55.8 c 4.07,-24.86 27.4,-42.1 48.19,-53.26 37.28,-9.39 82.18,-7.11 111.59,17.75 44.14,32.47 71.53,78.37 88.77,121.74 -22.06,-100.94 -64.41,-213.55 -167.39,-261.23 -46.41,15.47 -89.52,39.06 -134.42,58.33 -48.43,107.03 -26.37,248.05 55.79,332.25 40.84,38.81 86.23,66.95 139.5,76.09"
         style="fill:#ffffff;fill-opacity:1;fill-rule:nonzero;stroke:none"
         id="path66"
         inkscape:connector-curvature="0" /><path
         d="m 4004.77,2719.66 c -4.31,-29.16 -32.72,-48.44 -53.27,-71.01 -27.63,-22.07 -54.02,-47.17 -86.23,-58.33 -14.45,20.03 -5.32,39.56 0,60.87 24.6,36.52 62.14,74.31 101.45,91.3 15.99,0.5 30.18,-8.62 38.05,-22.83"
         style="fill:#ffffff;fill-opacity:1;fill-rule:nonzero;stroke:none"
         id="path68"
         inkscape:connector-curvature="0" /><path
         d="m 4222.88,2488.87 -2.54,0 c 52.76,34.49 83.45,86.73 83.7,147.1 9.13,-63.92 -27.14,-118.19 -81.16,-147.1"
         style="fill:#231f20;fill-opacity:1;fill-rule:nonzero;stroke:none"
         id="path70"
         inkscape:connector-curvature="0" /><path
         d="m 4626.14,2473.65 c 23.34,-39.57 19.79,-96.13 12.68,-142.03 0.26,56.56 5.33,115.14 -35.5,154.71 -20.55,4.82 -40.08,-7.36 -58.34,-15.22 -44.38,-30.18 -89.27,-59.6 -139.49,-76.09 l 0,7.61 48.19,63.41 c -5.58,-18.01 -16.99,-33.74 -25.36,-50.72 l 2.53,-2.54 c 53.77,22.57 97.65,69.24 154.72,83.69 16.48,-0.25 32.71,-6.85 40.57,-22.82"
         style="fill:#231f20;fill-opacity:1;fill-rule:nonzero;stroke:none"
         id="path72"
         inkscape:connector-curvature="0" /><path
         d="m 4524.69,2415.32 c 15.98,3.03 30.19,-5.58 43.12,-2.54 0.76,-2.29 -1.01,-3.55 -2.54,-5.07 18.52,-7.87 14.46,-37.29 32.97,-32.97 -16.99,-14.46 0.51,-33.99 -5.07,-53.27 4.07,-8.11 7.87,-1.52 12.68,0 l -12.68,-12.68 c -16.99,-114.63 -63.4,-216.84 -139.49,-306.88 -18.26,-15.47 -35.51,-33.48 -58.34,-38.04 -37.02,13.69 -67.71,42.1 -101.44,63.4 49.96,119.96 88.26,246.78 172.46,350 l -2.54,0 0,20.29 2.54,0 c -0.51,-5.32 0.51,-9.64 5.08,-12.68 13.43,0.25 13.18,17.24 25.36,20.29 7.6,4.31 17.5,3.04 22.82,12.68 l -2.54,0 0,27.9 2.54,0 c 1.78,-10.14 -4.31,-23.33 5.07,-30.43"
         style="fill:#231f20;fill-opacity:1;fill-rule:nonzero;stroke:none"
         id="path74"
         inkscape:connector-curvature="0" /><path
         d="m 4539.91,2379.81 c -19.53,-35.76 -57.57,-70.76 -91.31,-93.84 -4.3,4.05 -12.16,11.15 -10.14,20.28 2.29,31.2 21.81,57.32 48.19,76.09 15.98,3.55 40.33,17 53.26,-2.53"
         style="fill:#ffffff;fill-opacity:1;fill-rule:nonzero;stroke:none"
         id="path76"
         inkscape:connector-curvature="0" /><path
         d="m 4605.85,2382.34 3.8086,0 0,3.8086 -3.8086,0 0,-3.8086 z"
         style="fill:#231f20;fill-opacity:1;fill-rule:nonzero;stroke:none"
         id="path78"
         inkscape:connector-curvature="0" /><path
         d="m 3264.19,2250.46 c 3.04,-14.46 16.74,-24.35 15.21,-40.58 -9.13,14.96 -24.34,36.27 -43.11,38.04 -15.98,0.51 -26.89,-16.74 -38.05,-22.82 -0.76,-5.58 0.76,9.63 5.08,12.68 12.17,15.47 35.25,12.43 50.72,12.68 -6.08,17.25 -20.29,20.79 -32.98,32.97 -15.45,13.19 -42.09,7.1 -60.86,5.08 39.57,14.2 82.43,1.01 103.99,-38.05"
         style="fill:#231f20;fill-opacity:1;fill-rule:nonzero;stroke:none"
         id="path80"
         inkscape:connector-curvature="0" /><path
         d="m 4423.24,2207.34 c -12.42,-33.22 -69.99,-54.27 -45.65,-96.37 4.06,-14.21 14.71,-27.4 27.9,-35.51 27.14,-10.91 58.85,-3.05 81.16,12.68 19.79,18.52 36.52,37.79 50.72,58.33 -33.22,-64.17 -69.49,-140.5 -142.03,-175 -32.97,16.24 -63.9,37.28 -93.84,60.87 25.12,56.56 46.93,116.41 73.56,169.93 -3.05,-4.06 -2.29,-9.89 -2.54,-15.21 l 2.54,-2.54 c 15.98,7.61 31.19,18 48.18,22.82"
         style="fill:#ffffff;fill-opacity:1;fill-rule:nonzero;stroke:none"
         id="path82"
         inkscape:connector-curvature="0" /><path
         d="m 3281.93,2204.81 3.8086,0 0,3.8008 -3.8086,0 0,-3.8008 z"
         style="fill:#231f20;fill-opacity:1;fill-rule:nonzero;stroke:none"
         id="path84"
         inkscape:connector-curvature="0" /><path
         d="m 4222.88,2078 c 20.29,-4.57 41.34,-17.76 50.72,-38.05 10.4,-28.15 4.57,-61.88 -15.21,-83.7 -19.27,-16.23 -44.63,-25.61 -71.02,-17.74 -25.6,6.59 -58.58,23.33 -63.41,53.25 -4.3,23.08 -0.49,49.46 12.69,68.48 15.22,41.34 82.69,-0.76 73.55,55.8 l 5.07,7.61 c 1.02,-15.73 -26.12,-43.63 7.61,-45.65"
         style="fill:#231f20;fill-opacity:1;fill-rule:nonzero;stroke:none"
         id="path86"
         inkscape:connector-curvature="0" /><path
         d="m 3380.85,2017.13 3.8086,0 0,3.8008 -3.8086,0 0,-3.8008 z"
         style="fill:#231f20;fill-opacity:1;fill-rule:nonzero;stroke:none"
         id="path88"
         inkscape:connector-curvature="0" /><path
         d="m 3375.78,2014.59 3.8008,0 0,3.8008 -3.8008,0 0,-3.8008 z"
         style="fill:#231f20;fill-opacity:1;fill-rule:nonzero;stroke:none"
         id="path90"
         inkscape:connector-curvature="0" /><path
         d="m 3834.83,1958.79 c 80.66,-15.72 161.57,-36.01 218.12,-103.98 5.84,-9.13 7.36,-20.04 10.15,-30.44 -49.46,95.62 -155.73,118.7 -253.63,129.35 20.05,11.16 44.65,23.08 68.48,30.44 -13.18,-11.17 -31.45,-15.73 -43.12,-25.37"
         style="fill:#231f20;fill-opacity:1;fill-rule:nonzero;stroke:none"
         id="path92"
         inkscape:connector-curvature="0" /><path
         d="m 882.668,1867.49 0,-2.54 c -36.273,0.51 -66.199,-22.06 -103.984,-10.14 -30.184,11.16 -74.567,14.96 -83.7,50.72 l 2.536,2.54 c 56.558,-26.13 120.472,-33.99 185.148,-40.58"
         style="fill:#f2bda9;fill-opacity:1;fill-rule:nonzero;stroke:none"
         id="path94"
         inkscape:connector-curvature="0" /><path
         d="m 3916,1781.25 -30.43,10.15 c 11.67,0.76 25.61,0.51 30.43,-10.15"
         style="fill:#231f20;fill-opacity:1;fill-rule:nonzero;stroke:none"
         id="path96"
         inkscape:connector-curvature="0" /><path
         d="m 2498.24,1238.5 c -6.08,-18.26 -5.07,-29.92 -5.07,-50.73 0.17,-10.15 2.19,-19.44 2.53,-22.82 -51.23,-10.65 -96.87,-34.74 -147.09,-48.19 -17.76,10.91 1.01,25.62 2.53,38.04 36.27,47.18 85.23,84.46 144.56,86.24 l 2.54,-2.54"
         style="fill:#ffffff;fill-opacity:1;fill-rule:nonzero;stroke:none"
         id="path98"
         inkscape:connector-curvature="0" /><path
         d="m 3010.57,558.789 c -10.15,-36.258 -5.08,-78.867 15.21,-109.059 -15.47,-10.898 -37.28,-22.058 -55.8,-10.148 -10.9,6.598 -10.64,22.078 -10.15,35.508 0,34.242 26.63,59.601 45.66,83.699 l 5.08,0"
         style="fill:#f2bda9;fill-opacity:1;fill-rule:nonzero;stroke:none"
         id="path100"
         inkscape:connector-curvature="0" /><path
         d="m 3101.87,267.121 c 25.11,-28.91 49.97,-57.57 50.72,-96.371 -22.06,1.02 -43.63,14.711 -53.26,35.5 -12.17,18.77 2.03,39.07 -2.53,60.871 l 5.07,0"
         style="fill:#f2bda9;fill-opacity:1;fill-rule:nonzero;stroke:none"
         id="path102"
         inkscape:connector-curvature="0" /><path
         d="m 1712.01,1096.47 -2.53,2.53 c -75.33,-26.62 -147.61,-61.11 -220.66,-93.83 -58.83,-30.951 -123.51,-47.17 -175,-96.381 -13.67,-14.187 -25.24,-30.449 -34.37,-47.98 128.26,78.363 334.78,166.891 420.04,194.801 3.35,13.76 7.52,27.4 12.52,40.86"
         style="fill:#fab5af;fill-opacity:1;fill-rule:nonzero;stroke:none"
         id="path104"
         inkscape:connector-curvature="0" /><path
         d="m 1689.97,995.082 c 1.53,20.268 4.63,40.518 9.52,60.528 -85.26,-27.91 -291.78,-116.438 -420.04,-194.801 -22.87,-43.911 -30.49,-95.887 -17.88,-143.879 11.42,37.39 30.98,81.929 64,114.949 0,0 114.2,64.711 364.4,163.203"
         style="fill:#ed1443;fill-opacity:1;fill-rule:nonzero;stroke:none"
         id="path106"
         inkscape:connector-curvature="0" /><path
         d="m 1803.32,685.602 c -79.01,80.578 -121.95,195.5 -113.35,309.48 -250.2,-98.492 -364.4,-163.203 -364.4,-163.203 -33.02,-33.02 -52.58,-77.559 -64,-114.949 2.35,-8.91 5.36,-17.7 9.14,-26.258 35.76,-74.563 103.73,-146.582 190.22,-152.172 162.06,15.219 325.65,26.629 476.81,68.48 -50.98,11.411 -95.37,43.872 -134.42,78.622"
         style="fill:#9e0a2f;fill-opacity:1;fill-rule:nonzero;stroke:none"
         id="path108"
         inkscape:connector-curvature="0" /><path
         d="m 1897.63,1043.73 c 6,17.62 14.29,33.89 24.89,47.67 37.65,70.27 104.19,94.1 169.55,118.41 -29.57,18.59 -66.53,29.71 -108.36,28.38 -93.55,-2.97 -128.96,-27.59 -245.39,-115.71 -15.53,-27.19 -26.11,-58.95 -31.86,-92.4 90.93,61.81 157.72,36.33 191.17,13.65"
         style="fill:#ed1443;fill-opacity:1;fill-rule:nonzero;stroke:none"
         id="path110"
         inkscape:connector-curvature="0" /><path
         d="m 2300.42,751.551 c -62.65,-9.391 -123.52,-22.321 -187.68,-27.903 -88.52,2.282 -167.9,75.332 -205.44,152.172 -24.86,47.059 -28.08,113.86 -9.67,167.91 -33.45,22.68 -100.24,48.16 -191.17,-13.65 -12.01,-69.81 -3.01,-146.939 25.84,-204.978 27.65,-106.77 133.15,-194.532 238.41,-215.582 119.46,-18.27 253.11,-4.059 319.56,106.519 3.3,11.922 14.46,23.582 10.15,35.512"
         style="fill:#9e0a2f;fill-opacity:1;fill-rule:nonzero;stroke:none"
         id="path112"
         inkscape:connector-curvature="0" /><path
         d="m 2092.07,1209.81 c 23.57,8.76 47,17.6 68.86,28.69 l 0,2.54 c -11.93,9.63 -27.14,11.92 -40.58,17.75 -142.79,43.12 -291.16,-7.86 -377.9,-129.34 -1.42,-2.29 -2.79,-4.63 -4.13,-6.97 116.43,88.12 151.84,112.74 245.39,115.71 41.83,1.33 78.79,-9.79 108.36,-28.38"
         style="fill:#fab5af;fill-opacity:1;fill-rule:nonzero;stroke:none"
         id="path114"
         inkscape:connector-curvature="0" /><path
         d="m 2318.17,1281.68 -2.54,0 -248.55,-93.84 -73.54,-35.51 c -12.8,-10.34 -24.46,-21.41 -34.87,-33.16 117.94,47.59 280.41,107.76 335.5,128.03 7.23,12.21 15.21,23.79 24,34.48"
         style="fill:#fde4d9;fill-opacity:1;fill-rule:nonzero;stroke:none"
         id="path116"
         inkscape:connector-curvature="0" /><path
         d="m 2280.13,913.93 c -46.6,89.9 -44.08,213.66 0.6,308.04 -72.62,-35.02 -306.36,-155.37 -371.4,-188.9 -9.74,-31.42 -12.46,-65.422 -7.1,-101.39 19.28,-86.481 94.85,-176.008 185.15,-192.75 93.58,-3.301 180.83,23.59 271.37,35.511 l 5.07,5.071 c -35.5,39.566 -63.4,86.488 -83.69,134.418"
         style="fill:#f2bda9;fill-opacity:1;fill-rule:nonzero;stroke:none"
         id="path118"
         inkscape:connector-curvature="0" /><path
         d="m 2294.17,1247.2 c -55.09,-20.27 -217.56,-80.44 -335.5,-128.03 -22.77,-25.69 -39.58,-54.6 -49.34,-86.1 65.04,33.53 298.78,153.88 371.4,188.9 4.11,8.69 8.63,17.09 13.44,25.23"
         style="fill:#fcd5c5;fill-opacity:1;fill-rule:nonzero;stroke:none"
         id="path120"
         inkscape:connector-curvature="0" /><path
         d="M 2671.17,640.309 2423.75,562.91 c 15.82,-3.34 32.29,-4.078 49.13,-1.519 78.38,21.558 157.75,46.929 230.8,76.089 -10.93,0.719 -21.76,1.68 -32.51,2.829"
         style="fill:#fde4d9;fill-opacity:1;fill-rule:nonzero;stroke:none"
         id="path122"
         inkscape:connector-curvature="0" /><path
         d="m 2379.04,764.289 c -21.05,-3.301 -43.87,-3.039 -63.41,-10.141 l 0,-10.148 c -4.05,-28.148 -43.87,-54.02 -20.28,-81.16 16.85,-28.371 41.09,-55.399 69.96,-74.649 l 226.96,65.399 c -78.7,18.492 -150.86,52.871 -213.23,110.699"
         style="fill:#f2bda9;fill-opacity:1;fill-rule:nonzero;stroke:none"
         id="path124"
         inkscape:connector-curvature="0" /><path
         d="m 2592.27,653.59 -226.96,-65.399 c 17.9,-11.941 37.6,-20.882 58.44,-25.281 l 247.42,77.399 c -26.91,2.921 -53.26,7.261 -78.9,13.281"
         style="fill:#fcd5c5;fill-opacity:1;fill-rule:nonzero;stroke:none"
         id="path126"
         inkscape:connector-curvature="0" /><path
         d="m 2553.09,572.859 -4.13,-1.32 c -36,-10.648 -67.71,-30.937 -111.59,-22.828 -26.12,1.98 -50.55,10.879 -72.57,24.41 -7.18,-20.711 -21.09,-43.539 -46.6,-65.262 -33.29,-28.359 -100.38,-32.3 -130.48,-32.57 42.82,-29.57 93.46,-46.047 146.86,-51.969 42.28,6.789 98.3,24.34 150.39,53.77 49.7,28.101 64.05,70.59 68.12,95.769"
         style="fill:#ed1443;fill-opacity:1;fill-rule:nonzero;stroke:none"
         id="path128"
         inkscape:connector-curvature="0" /><path
         d="m 2364.8,573.121 c -37.18,22.848 -67.45,58.938 -87.21,97.328 -9.38,3.551 -8.87,-5.578 -12.68,-10.14 -45.65,-37.278 -100.43,-62.899 -162.32,-65.938 -8.87,-10.402 5.08,-23.59 7.61,-35.512 20.69,-35.089 47.15,-62.609 77.52,-83.57 30.1,0.27 97.19,4.211 130.48,32.57 25.51,21.723 39.42,44.551 46.6,65.262"
         style="fill:#9e0a2f;fill-opacity:1;fill-rule:nonzero;stroke:none"
         id="path130"
         inkscape:connector-curvature="0" /><path
         d="m 2683.39,614.648 -130.3,-41.789 c -4.07,-25.179 -18.42,-67.668 -68.12,-95.769 -52.09,-29.43 -108.11,-46.981 -150.39,-53.77 26.2,-2.898 53.05,-3.281 79.97,-1.422 112.61,10.153 236.63,73.551 271.38,190.223 l -2.54,2.527"
         style="fill:#fab5af;fill-opacity:1;fill-rule:nonzero;stroke:none"
         id="path132"
         inkscape:connector-curvature="0" /><path
         d="m 2082.3,589.289 c -43.87,-1.269 -85.97,1.27 -126.81,7.609 -77.86,-19.019 -157.5,-34.238 -238.41,-45.648 -18.51,-3.301 -38.8,-3.039 -55.79,-10.148 -7.46,-58.204 26.84,-103.391 66.95,-138.84 65.48,10.277 286.41,47.418 411.31,98.59 -25.69,25.218 -46.22,55.039 -57.25,88.437"
         style="fill:#9e0a2f;fill-opacity:1;fill-rule:nonzero;stroke:none"
         id="path134"
         inkscape:connector-curvature="0" /><path
         d="m 2139.55,500.852 c -124.9,-51.172 -345.83,-88.313 -411.31,-98.59 2.19,-1.942 4.39,-3.852 6.6,-5.723 10.87,-10.719 22.9,-17.73 35.7,-22.141 260.71,22.993 418.21,65.313 443.62,72.5 -26.87,14.172 -52.64,32.372 -74.61,53.954"
         style="fill:#ed1443;fill-opacity:1;fill-rule:nonzero;stroke:none"
         id="path136"
         inkscape:connector-curvature="0" /><path
         d="m 2214.16,446.898 c -25.41,-7.187 -182.91,-49.507 -443.62,-72.5 52.34,-18.007 117.86,7.942 172.27,6.922 l 317.03,38.051 7.61,5.07 c -17.73,5.629 -35.75,13.188 -53.29,22.457"
         style="fill:#fab5af;fill-opacity:1;fill-rule:nonzero;stroke:none"
         id="path138"
         inkscape:connector-curvature="0" /><path
         d="m 2706.21,1489.58 c -92.06,-43.36 -176.77,-121.22 -197.82,-223.18 l 2.54,-2.54 c -0.8,-1.72 -1.53,-3.44 -2.21,-5.15 35.21,23.74 104.81,68.85 165.42,97.19 3.88,46.9 16.67,91.54 32.07,133.68"
         style="fill:#006e32;fill-opacity:1;fill-rule:nonzero;stroke:none"
         id="path140"
         inkscape:connector-curvature="0" /><path
         d="m 2995.96,771.41 c 10.02,-2.238 19.56,-4.34 28.66,-6.359 34.42,12.539 75.32,29.418 124.3,51.871 -33.33,5.769 -65.83,13.59 -97.51,23.469 -33.32,-13.551 -79.85,-31.469 -123.23,-48.832 21.32,-8.059 43.93,-14.86 67.78,-20.149"
         style="fill:#42b23c;fill-opacity:1;fill-rule:nonzero;stroke:none"
         id="path142"
         inkscape:connector-curvature="0" /><path
         d="m 2841.64,835.41 c 30.3,11.649 68.73,25.649 117.36,42.481 -2.78,1.429 -5.56,2.879 -8.33,4.371 -32.29,-12.68 -74.76,-28.532 -113.85,-43.602 1.6,-1.101 3.2,-2.18 4.82,-3.25"
         style="fill:#42b23c;fill-opacity:1;fill-rule:nonzero;stroke:none"
         id="path144"
         inkscape:connector-curvature="0" /><path
         d="m 2697.58,1058.74 c 2.73,-59.111 31.05,-120.002 80.97,-171.388 33.98,14.078 69.62,29.289 97.83,42.339 -78.16,58.809 -141.61,137.759 -175.98,228.279 -3.96,-17.1 -5.4,-43.27 -2.82,-99.23"
         style="fill:#42b23c;fill-opacity:1;fill-rule:nonzero;stroke:none"
         id="path146"
         inkscape:connector-curvature="0" /><path
         d="m 2995.96,771.41 c -23.85,5.289 -46.46,12.09 -67.78,20.149 -28.38,-11.36 -55.42,-22.469 -76.53,-31.95 25.04,-9.078 50.74,-16.507 77.04,-22.461 24.92,4.723 56.1,13.411 95.93,27.903 -9.1,2.019 -18.64,4.121 -28.66,6.359"
         style="fill:#006e32;fill-opacity:1;fill-rule:nonzero;stroke:none"
         id="path148"
         inkscape:connector-curvature="0" /><path
         d="m 2836.82,838.66 c -32.14,-12.398 -61.97,-24.25 -81.94,-33.351 2.12,-1.258 4.24,-2.508 6.37,-3.739 16.71,8.149 42.08,19.11 80.39,33.84 -1.62,1.07 -3.22,2.149 -4.82,3.25"
         style="fill:#006e32;fill-opacity:1;fill-rule:nonzero;stroke:none"
         id="path150"
         inkscape:connector-curvature="0" /><path
         d="m 2697.58,1058.74 c -2.58,55.96 -1.14,82.13 2.82,99.23 -13.33,35.1 -22.27,71.91 -26.02,109.97 -38.19,-21.31 -119.17,-67.29 -171.74,-102.84 5.9,-54.25 25.23,-106.51 48.86,-154.86 34.55,-59.881 81.06,-116.439 136.32,-159.619 21.44,8.488 55.17,21.988 90.73,36.731 -49.92,51.386 -78.24,112.277 -80.97,171.388"
         style="fill:#006e32;fill-opacity:1;fill-rule:nonzero;stroke:none"
         id="path152"
         inkscape:connector-curvature="0" /><path
         d="m 3148.92,816.922 c -48.98,-22.453 -89.88,-39.332 -124.3,-51.871 -39.83,-14.492 -71.01,-23.18 -95.93,-27.903 9.46,-2.148 19.01,-4.117 28.61,-5.898 l 2.53,2.539 c 8.64,-10.148 25.12,-1.269 35.51,-7.609 2.79,6.09 6.6,-0.508 10.15,0 29.31,6.519 58.29,14.621 86.67,24.101 46.75,15.617 91.83,34.961 133.98,57.059 -26.21,2 -51.95,5.211 -77.22,9.582"
         style="fill:#ffffff;fill-opacity:1;fill-rule:nonzero;stroke:none"
         id="path154"
         inkscape:connector-curvature="0" /><path
         d="m 2674.14,1355.9 c -60.61,-28.34 -130.21,-73.45 -165.42,-97.19 -8.64,-21.71 -8.41,-42.59 -7.94,-65.86 0.19,-9.31 0.85,-18.55 1.86,-27.75 52.57,35.55 133.55,81.53 171.74,102.84 -0.43,4.55 -0.84,9.1 -1.14,13.68 l 0.61,2.2 c -3.28,24.47 -1.63,48.72 0.29,72.08"
         style="fill:#ffffff;fill-opacity:1;fill-rule:nonzero;stroke:none"
         id="path156"
         inkscape:connector-curvature="0" /><path
         d="m 3035.93,845.379 c -26.24,8.769 -51.98,19.691 -76.93,32.512 -48.63,-16.832 -87.06,-30.832 -117.36,-42.481 -38.31,-14.73 -63.68,-25.691 -80.39,-33.84 28.98,-16.73 59.16,-30.629 90.4,-41.961 21.11,9.481 48.15,20.59 76.53,31.95 43.38,17.363 89.91,35.281 123.23,48.832 -5.18,1.621 -10.35,3.269 -15.48,4.988"
         style="fill:#ffffff;fill-opacity:1;fill-rule:nonzero;stroke:none"
         id="path158"
         inkscape:connector-curvature="0" /><path
         d="m 2950.67,882.262 c -25.84,13.82 -50.73,29.707 -74.29,47.429 -28.21,-13.05 -63.85,-28.261 -97.83,-42.339 -35.56,-14.743 -69.29,-28.243 -90.73,-36.731 11.67,-9.129 23.72,-17.691 36.14,-25.531 10.14,-6.988 20.46,-13.551 30.92,-19.781 19.97,9.101 49.8,20.953 81.94,33.351 39.09,15.07 81.56,30.922 113.85,43.602"
         style="fill:#ffffff;fill-opacity:1;fill-rule:nonzero;stroke:none"
         id="path160"
         inkscape:connector-curvature="0" /><path
         d="m 3177.95,94.6602 c 2.79,-15.7188 3.81,-32.211 12.68,-45.6602 11.54,-21.6016 31.58,-36.6992 54.58,-41.48828 -0.06,12.08988 -0.52,21.00778 -1.18,27.50778 -29.54,6.6797 -49.15,38.8321 -66.08,59.6407"
         style="fill:#f2bda9;fill-opacity:1;fill-rule:nonzero;stroke:none"
         id="path162"
         inkscape:connector-curvature="0" /><path
         d="m 3302.23,41.3984 c -12.43,-11.1562 -31.45,-6.3398 -48.19,-7.6171 -3.45,0.0898 -6.78,0.5195 -10.01,1.2382 0.66,-6.5 1.12,-15.4179 1.18,-27.50778 5.35,-1.11328 10.85,-1.67188 16.44,-1.62109 14.97,0.50781 28.66,3.80078 38.04,17.75777 0.77,5.8321 9.39,11.9219 2.54,17.75"
         style="fill:#fde4d9;fill-opacity:1;fill-rule:nonzero;stroke:none"
         id="path164"
         inkscape:connector-curvature="0" /><path
         d="m 3907.04,1442.74 c -8.27,-6.2 6.21,-43.43 -2.07,-93.06 -8.27,-49.64 -31.01,-134.44 -93.07,-275.08 -62.04,-140.631 -80.65,-169.588 -140.63,-260.588 -59.98,-91 -113.75,-153.051 -113.75,-153.051 0,0 -18.62,-33.09 -62.05,-119.949 -43.43,-86.864 -126.16,-165.453 -126.16,-165.453 -4.13,-109.618 -33.09,-128.227 -33.09,-128.227 0,0 -10.34,14.469 -26.88,10.34 -16.56,-4.141 -4.13,-51.703 -6.21,-88.934 -2.08,-37.238 6.21,-59.988 -20.69,-86.8669 -15.44,-15.4492 -36.34,-16.5508 -51.33,-14.7109 2.76,-7.2188 5.86,-13.5508 9.1,-19.0196 9.89,-4.6093 20.65,-7.2187 32.38,-6.7422 14.7,7.1016 33.22,4.5625 43.11,22.8204 23.59,50.4802 5.59,117.9412 25.36,169.9292 6.1,-23.839 -8.62,-50.718 0,-73.546 13.71,11.668 22.07,25.359 32.97,38.039 29.68,46.918 47.69,103.988 43.12,159.789 -3.55,0.511 -7.35,-6.09 -10.15,0 132.15,137.968 226.5,291.41 299.28,453.98 114.89,161.809 202.66,335.04 243.48,527.54 5.73,36.91 2.28,72.71 -8.56,106.16 -16.29,3.44 -29.1,0.43 -34.16,-3.37"
         style="fill:#fde4d9;fill-opacity:1;fill-rule:nonzero;stroke:none"
         id="path166"
         inkscape:connector-curvature="0" /><path
         d="m 3739.52,1273.15 c -59.98,-80.66 -223.37,-248.18 -337.12,-320.568 -80.17,-51.023 -160.34,-96.883 -233.99,-131.121 25.18,-3.481 50.67,-5.66 76.28,-6.512 119.97,58.332 232.07,135.442 339.85,223.181 101.46,107.55 273.67,202.4 251.09,370.3 l 1.95,1.95 c -0.92,2.22 -1.89,4.09 -2.92,5.47 -6.21,8.28 -35.16,-62.04 -95.14,-142.7"
         style="fill:#fde4d9;fill-opacity:1;fill-rule:nonzero;stroke:none"
         id="path168"
         inkscape:connector-curvature="0" /><path
         d="m 3222.46,166.66 c 0,0 -41.36,31.031 -24.81,122.031 16.54,91 55.85,130.301 84.79,179.93 28.97,49.641 49.64,107.551 49.64,107.551 0,0 14.48,53.769 99.28,165.457 78.11,102.891 212.41,300.571 250.86,368.241 C 3538.87,970.621 3370.95,856.859 3199.03,779.441 3134.37,769.809 3127.52,696 3107.73,647.559 l -5.07,5.07 c -36.52,-21.797 -73.04,-54.777 -83.7,-96.379 -13.95,-52.5 10.15,-95.859 38.04,-134.418 -2.53,-50.211 10.15,-94.09 38.05,-131.883 74.32,-50.469 62.14,-141.769 103.98,-207.9685 11.6,-13.6289 25.24,-26.3711 41.18,-33.8399 -13.49,22.7696 -24.7,59.8714 -17.75,118.5194"
         style="fill:#f2bda9;fill-opacity:1;fill-rule:nonzero;stroke:none"
         id="path170"
         inkscape:connector-curvature="0" /><path
         d="m 3346.56,1639.22 c 57.91,-111.68 101.34,-190.27 219.23,-215.09 117.88,-24.82 213.02,28.96 306.09,45.5 21.95,3.9 41.79,4.1 59.34,2.15 -15.88,35.01 -40.01,66.86 -70.22,93.89 -26.38,35.77 -49.71,-12.93 -76.1,-15.22 l -2.53,2.54 c 17.25,19.79 45.15,31.2 63.4,48.19 -177.78,56.56 -351.77,154.97 -476.81,306.89 -5.83,-17.75 -8.11,-37.03 -17.75,-53.26 -13.18,11.92 4.32,29.42 -5.08,40.58 -102.13,62.95 -231.47,96.31 -356.95,71.34 212.34,-43.65 300.07,-216.97 357.38,-327.51"
         style="fill:#f2bda9;fill-opacity:1;fill-rule:nonzero;stroke:none"
         id="path172"
         inkscape:connector-curvature="0" /><path
         d="m 882.988,1882.75 c -11.765,12.66 -25.781,21.58 -38.949,25.34 -28.949,8.27 -22.75,-6.21 -101.34,18.61 -41.679,13.16 -75.215,27.48 -97.519,38.04 53.515,-67.33 152.633,-73.33 237.808,-81.99"
         style="fill:#f2bda9;fill-opacity:1;fill-rule:nonzero;stroke:none"
         id="path174"
         inkscape:connector-curvature="0" /><path
         d="m 2972.22,1492.38 c 66.18,33.09 68.25,39.29 68.25,78.59 0,39.29 6.2,91 -35.16,91 -41.36,0 -155.11,-10.34 -332.98,-14.47 -177.87,-4.15 -438.46,2.06 -552.21,12.4 -113.75,10.34 -140.64,16.55 -144.77,24.82 0,0 -167.53,-16.55 -326.78,-4.13 -159.25,12.4 -275.07,53.77 -330.91,57.9 0,0 -74.46,-51.7 -136.5,-80.65 -62.05,-28.96 -179.93,-16.55 -233.711,-8.27 -53.773,8.27 -55.84,20.67 -93.062,0 -23.481,-13.05 -69.137,-35.94 -109.532,-42.27 1.09,-8.14 3.27,-16.17 6.715,-23.87 31.453,-40.07 89.535,-19.53 134.426,-17.76 90.289,23.59 144.054,-40.06 223.184,-43.11 85.73,13.44 162.07,49.97 238.41,86.23 -4.31,3.3 -12.17,3.05 -12.68,10.15 l 2.53,2.53 c 138.23,-36.26 284.32,-53.76 433.7,-63.41 l 258.69,-2.53 319.57,-10.15 489.49,-5.07 68.48,-5.07 c -9.38,-1.78 -16.99,-7.1 -27.9,-5.07 -49.96,-12.17 -117.18,17.24 -154.71,-25.37 -45.61,-97.17 -53.67,-231.26 -17.09,-337.13 11.69,44.23 33.07,94.63 72.2,148.91 64.12,88.93 126.17,142.71 192.35,175.8"
         style="fill:#f2bda9;fill-opacity:1;fill-rule:nonzero;stroke:none"
         id="path176"
         inkscape:connector-curvature="0" /><path
         d="m 678.586,2044.59 c 56.543,-8.32 162.559,-28.65 244.934,13.16 -4.903,-1.71 -9.805,-3.41 -14.704,-5.12 -91.808,-16.99 -176.007,30.94 -266.3,17.76 -12.809,-9.74 -21.098,-24.99 -22.77,-41.51 13.871,11.56 32.992,19.51 58.84,15.71"
         style="fill:#fde4d9;fill-opacity:1;fill-rule:nonzero;stroke:none"
         id="path178"
         inkscape:connector-curvature="0" /><path
         d="m 3907.04,1442.74 c 5.06,3.8 17.87,6.81 34.16,3.37 -2.83,8.73 -6.17,17.29 -9.98,25.67 -17.55,1.95 -37.39,1.75 -59.34,-2.15 -93.07,-16.54 -188.21,-70.32 -306.09,-45.5 -117.89,24.82 -161.32,103.41 -219.23,215.09 -57.31,110.54 -145.04,283.86 -357.38,327.51 -4.44,-0.89 -8.9,-1.83 -13.33,-2.86 l -2.54,2.53 17.75,12.68 c -185.65,48.19 -389.05,62.14 -585.86,76.09 l -253.63,5.07 c -175,23.33 -348.98,49.2 -535.14,45.65 -70.76,0.51 -140.25,-10.65 -207.97,-10.14 l 7.6,7.61 c -36.01,17.75 -79.63,27.89 -124.27,30.43 -131.68,3.17 -251.45,-35.48 -368.27,-76.04 -82.375,-41.81 -188.391,-21.48 -244.934,-13.16 -25.848,3.8 -44.969,-4.15 -58.84,-15.71 -0.816,-8.02 -0.09,-16.32 2.481,-24.43 6.152,-15.2 13.906,-28.33 22.953,-39.71 22.304,-10.56 55.84,-24.88 97.519,-38.04 78.59,-24.82 72.391,-10.34 101.34,-18.61 13.168,-3.76 27.184,-12.68 38.949,-25.34 0.157,-0.02 0.313,-0.03 0.469,-0.04 31.957,-29.93 73.809,-67.72 63.406,-116.67 -18.258,-40.59 -67.718,-27.91 -106.519,-30.44 -25.871,-9.13 -50.727,-20.54 -71.02,-43.11 -17.578,-23.17 -28.531,-55 -24.469,-85.19 40.395,6.33 86.051,29.22 109.532,42.27 37.222,20.67 39.289,8.27 93.062,0 53.781,-8.28 171.661,-20.69 233.711,8.27 62.04,28.95 136.5,80.65 136.5,80.65 55.84,-4.13 171.66,-45.5 330.91,-57.9 159.25,-12.42 326.78,4.13 326.78,4.13 4.13,-8.27 31.02,-14.48 144.77,-24.82 113.75,-10.34 374.34,-16.55 552.21,-12.4 177.87,4.13 291.62,14.47 332.98,14.47 41.36,0 35.16,-51.71 35.16,-91 0,-39.3 -2.07,-45.5 -68.25,-78.59 -66.18,-33.09 -128.23,-86.87 -192.35,-175.8 -39.13,-54.28 -60.51,-104.68 -72.2,-148.91 5.52,-15.99 12.04,-31.35 19.62,-45.84 86.42,-177.049 255.78,-274.682 441.12,-300.369 73.65,34.238 153.82,80.098 233.99,131.121 113.75,72.388 277.14,239.908 337.12,320.568 59.98,80.66 88.93,150.98 95.14,142.7 1.03,-1.38 2,-3.25 2.92,-5.47 l 0.58,0.58 c 21.31,-49.7 6.61,-109.56 -20.28,-152.17 -41.91,-52.25 -87.39,-102.03 -135.66,-148.92 -38.45,-67.67 -172.75,-265.35 -250.86,-368.241 -84.8,-111.688 -99.28,-165.457 -99.28,-165.457 0,0 -20.67,-57.91 -49.64,-107.551 -28.94,-49.629 -68.25,-88.93 -84.79,-179.93 -16.55,-91 24.81,-122.031 24.81,-122.031 -5.27,-44.551 -0.08,-76.6483 8.65,-99.4998 14.99,-1.8399 35.89,-0.7383 51.33,14.7109 26.9,26.8789 18.61,49.6289 20.69,86.8669 2.08,37.231 -10.35,84.793 6.21,88.934 16.54,4.129 26.88,-10.34 26.88,-10.34 0,0 28.96,18.609 33.09,128.227 0,0 82.73,78.589 126.16,165.453 43.43,86.859 62.05,119.949 62.05,119.949 0,0 53.77,62.051 113.75,153.051 59.98,91 78.59,119.957 140.63,260.588 62.06,140.64 84.8,225.44 93.07,275.08 8.28,49.63 -6.2,86.86 2.07,93.06"
         style="fill:#fcd5c5;fill-opacity:1;fill-rule:nonzero;stroke:none"
         id="path180"
         inkscape:connector-curvature="0" /><path
         d="m 1303.18,2003.22 c 0,0 119.96,16.55 256.46,12.41 136.5,-4.14 349.53,-35.16 423.98,-72.38 0,0 190.27,14.47 341.25,4.13 150.98,-10.34 401.23,-20.68 562.55,-57.91 161.32,-37.22 190.28,-43.43 217.16,-55.84 26.88,-12.4 31.03,2.07 12.41,24.82 -18.61,22.75 -72.39,76.52 -239.91,113.75 -167.52,37.23 -378.48,82.73 -837.62,49.64 0,0 -233.7,88.93 -674.23,43.43 0,0 -179.94,39.3 -289.55,-2.07 -109.617,-41.36 -78.59,-45.5 -35.16,-39.3 43.43,6.21 186.14,35.16 262.66,-20.68"
         style="fill:#fde4d9;fill-opacity:1;fill-rule:nonzero;stroke:none"
         id="path182"
         inkscape:connector-curvature="0" /><path
         d="m 4224.8,1954.95 c 7.75,9.46 16.35,32.7 6.03,47.33 -10.32,14.63 -36.14,32.7 -21.51,52.49 6.11,8.27 14.94,12.02 24.45,12.66 -6.67,3.7 -13.74,6.46 -21.04,8.04 -23.58,5.58 -50.21,3.3 -65.93,-17.75 -3.87,-4.76 -7.17,-10.1 -9.86,-15.8 3.25,1.01 6.58,0.58 9.55,-2.64 10.33,-11.18 13.77,-18.93 14.63,-32.7 0.86,-13.76 10.34,-30.97 17.22,-43.02 4.53,-7.95 11.71,-12.92 19.03,-19.33 2.7,-0.28 5.39,-0.47 8.1,-0.55 7.53,2.87 15.65,6.78 19.33,11.27"
         style="fill:#fcd5c5;fill-opacity:1;fill-rule:nonzero;stroke:none"
         id="path184"
         inkscape:connector-curvature="0" /><path
         d="m 4233.77,2067.43 c -9.51,-0.64 -18.34,-4.39 -24.45,-12.66 -14.63,-19.79 11.19,-37.86 21.51,-52.49 10.32,-14.63 1.72,-37.87 -6.03,-47.33 -3.68,-4.49 -11.8,-8.4 -19.33,-11.27 19.41,-0.56 38.42,4.6 50.38,22.74 15.21,18.76 19.78,48.18 10.15,71.01 -8.45,12.6 -19.63,23 -32.23,30"
         style="fill:#fde4d9;fill-opacity:1;fill-rule:nonzero;stroke:none"
         id="path186"
         inkscape:connector-curvature="0" /><path
         d="m 4178.34,1963.56 c -6.88,12.05 -16.36,29.26 -17.22,43.02 -0.86,13.77 -4.3,21.52 -14.63,32.7 -2.97,3.22 -6.3,3.65 -9.55,2.64 -8.77,-18.59 -10.79,-41.07 -2.83,-60.29 14.72,-17.25 31.46,-28.91 50.72,-35.51 4.12,-0.81 8.31,-1.45 12.54,-1.89 -7.32,6.41 -14.5,11.38 -19.03,19.33"
         style="fill:#f2bda9;fill-opacity:1;fill-rule:nonzero;stroke:none"
         id="path188"
         inkscape:connector-curvature="0" /></g></g></svg>