<?xml version="1.0" encoding="utf-8" standalone="no"?>
<!DOCTYPE svg PUBLIC "-//W3C//DTD SVG 1.1//EN"
  "http://www.w3.org/Graphics/SVG/1.1/DTD/svg11.dtd">
<!-- Created with matplotlib (http://matplotlib.org/) -->
<svg height="360pt" version="1.1" viewBox="0 0 648 360" width="648pt" xmlns="http://www.w3.org/2000/svg" xmlns:xlink="http://www.w3.org/1999/xlink">
 <defs>
  <style type="text/css">
*{stroke-linecap:butt;stroke-linejoin:round;}
  </style>
 </defs>
 <g id="figure_1">
  <g id="patch_1">
   <path d="
M0 360
L648 360
L648 0
L0 0
z
" style="fill:#ffffff;"/>
  </g>
  <g id="axes_1">
   <g id="patch_2">
    <path d="
M81 315
L583.2 315
L583.2 36
L81 36
z
" style="fill:#ffffff;"/>
   </g>
   <g id="matplotlib.axis_1">
    <g id="xtick_1">
     <g id="line2d_1">
      <defs>
       <path d="
M0 0
L0 6" id="m44d4eda7dc" style="stroke:#262626;"/>
      </defs>
      <g>
       <use style="fill:#262626;stroke:#262626;" x="81.0" xlink:href="#m44d4eda7dc" y="315.0"/>
      </g>
     </g>
     <g id="text_1">
      <!-- −1.0 -->
      <defs>
       <path d="
M4.15625 35.2969
Q4.15625 48 6.76562 55.7344
Q9.375 63.4844 14.5156 67.6719
Q19.6719 71.875 27.4844 71.875
Q33.25 71.875 37.5938 69.5469
Q41.9375 67.2344 44.7656 62.8594
Q47.6094 58.5 49.2188 52.2188
Q50.8281 45.9531 50.8281 35.2969
Q50.8281 22.7031 48.2344 14.9688
Q45.6562 7.23438 40.5 3
Q35.3594 -1.21875 27.4844 -1.21875
Q17.1406 -1.21875 11.2344 6.20312
Q4.15625 15.1406 4.15625 35.2969
M13.1875 35.2969
Q13.1875 17.6719 17.3125 11.8281
Q21.4375 6 27.4844 6
Q33.5469 6 37.6719 11.8594
Q41.7969 17.7188 41.7969 35.2969
Q41.7969 52.9844 37.6719 58.7812
Q33.5469 64.5938 27.3906 64.5938
Q21.3438 64.5938 17.7188 59.4688
Q13.1875 52.9375 13.1875 35.2969" id="ArialMT-30"/>
       <path d="
M37.25 0
L28.4688 0
L28.4688 56
Q25.2969 52.9844 20.1406 49.9531
Q14.9844 46.9219 10.8906 45.4062
L10.8906 53.9062
Q18.2656 57.375 23.7812 62.2969
Q29.2969 67.2344 31.5938 71.875
L37.25 71.875
z
" id="ArialMT-31"/>
       <path d="
M52.8281 31.2031
L5.5625 31.2031
L5.5625 39.4062
L52.8281 39.4062
z
" id="ArialMT-2212"/>
       <path d="
M9.07812 0
L9.07812 10.0156
L19.0938 10.0156
L19.0938 0
z
" id="ArialMT-2e"/>
      </defs>
      <g style="fill:#262626;" transform="translate(69.77625 336.589375)scale(0.12 -0.12)">
       <use xlink:href="#ArialMT-2212"/>
       <use x="58.3984375" xlink:href="#ArialMT-31"/>
       <use x="114.013671875" xlink:href="#ArialMT-2e"/>
       <use x="141.796875" xlink:href="#ArialMT-30"/>
      </g>
     </g>
    </g>
    <g id="xtick_2">
     <g id="line2d_2">
      <g>
       <use style="fill:#262626;stroke:#262626;" x="206.55" xlink:href="#m44d4eda7dc" y="315.0"/>
      </g>
     </g>
     <g id="text_2">
      <!-- −0.5 -->
      <defs>
       <path d="
M4.15625 18.75
L13.375 19.5312
Q14.4062 12.7969 18.1406 9.39062
Q21.875 6 27.1562 6
Q33.5 6 37.8906 10.7812
Q42.2812 15.5781 42.2812 23.4844
Q42.2812 31 38.0625 35.3438
Q33.8438 39.7031 27 39.7031
Q22.75 39.7031 19.3281 37.7656
Q15.9219 35.8438 13.9688 32.7656
L5.71875 33.8438
L12.6406 70.6094
L48.25 70.6094
L48.25 62.2031
L19.6719 62.2031
L15.8281 42.9688
Q22.2656 47.4688 29.3438 47.4688
Q38.7188 47.4688 45.1562 40.9688
Q51.6094 34.4688 51.6094 24.2656
Q51.6094 14.5469 45.9531 7.46875
Q39.0625 -1.21875 27.1562 -1.21875
Q17.3906 -1.21875 11.2031 4.25
Q5.03125 9.71875 4.15625 18.75" id="ArialMT-35"/>
      </defs>
      <g style="fill:#262626;" transform="translate(195.279375 336.589375)scale(0.12 -0.12)">
       <use xlink:href="#ArialMT-2212"/>
       <use x="58.3984375" xlink:href="#ArialMT-30"/>
       <use x="114.013671875" xlink:href="#ArialMT-2e"/>
       <use x="141.796875" xlink:href="#ArialMT-35"/>
      </g>
     </g>
    </g>
    <g id="xtick_3">
     <g id="line2d_3">
      <g>
       <use style="fill:#262626;stroke:#262626;" x="332.1" xlink:href="#m44d4eda7dc" y="315.0"/>
      </g>
     </g>
     <g id="text_3">
      <!-- 0.0 -->
      <g style="fill:#262626;" transform="translate(324.29625 336.589375)scale(0.12 -0.12)">
       <use xlink:href="#ArialMT-30"/>
       <use x="55.615234375" xlink:href="#ArialMT-2e"/>
       <use x="83.3984375" xlink:href="#ArialMT-30"/>
      </g>
     </g>
    </g>
    <g id="xtick_4">
     <g id="line2d_4">
      <g>
       <use style="fill:#262626;stroke:#262626;" x="457.65" xlink:href="#m44d4eda7dc" y="315.0"/>
      </g>
     </g>
     <g id="text_4">
      <!-- 0.5 -->
      <g style="fill:#262626;" transform="translate(449.799375 336.589375)scale(0.12 -0.12)">
       <use xlink:href="#ArialMT-30"/>
       <use x="55.615234375" xlink:href="#ArialMT-2e"/>
       <use x="83.3984375" xlink:href="#ArialMT-35"/>
      </g>
     </g>
    </g>
    <g id="xtick_5">
     <g id="line2d_5">
      <g>
       <use style="fill:#262626;stroke:#262626;" x="583.2" xlink:href="#m44d4eda7dc" y="315.0"/>
      </g>
     </g>
     <g id="text_5">
      <!-- 1.0 -->
      <g style="fill:#262626;" transform="translate(575.8003125 336.589375)scale(0.12 -0.12)">
       <use xlink:href="#ArialMT-31"/>
       <use x="55.615234375" xlink:href="#ArialMT-2e"/>
       <use x="83.3984375" xlink:href="#ArialMT-30"/>
      </g>
     </g>
    </g>
    <g id="text_6">
     <!-- Pressure (arbitrary units) -->
     <defs>
      <path d="
M14.7031 0
L6.54688 0
L6.54688 71.5781
L15.3281 71.5781
L15.3281 46.0469
Q20.9062 53.0312 29.5469 53.0312
Q34.3281 53.0312 38.5938 51.0938
Q42.875 49.1719 45.625 45.6719
Q48.3906 42.1875 49.9531 37.25
Q51.5156 32.3281 51.5156 26.7031
Q51.5156 13.375 44.9219 6.09375
Q38.3281 -1.17188 29.1094 -1.17188
Q19.9219 -1.17188 14.7031 6.5
z

M14.5938 26.3125
Q14.5938 17 17.1406 12.8438
Q21.2969 6.0625 28.375 6.0625
Q34.125 6.0625 38.3281 11.0625
Q42.5312 16.0625 42.5312 25.9844
Q42.5312 36.1406 38.5 40.9688
Q34.4688 45.7969 28.7656 45.7969
Q23 45.7969 18.7969 40.7969
Q14.5938 35.7969 14.5938 26.3125" id="ArialMT-62"/>
      <path d="
M40.4375 6.39062
Q35.5469 2.25 31.0312 0.53125
Q26.5156 -1.17188 21.3438 -1.17188
Q12.7969 -1.17188 8.20312 3
Q3.60938 7.17188 3.60938 13.6719
Q3.60938 17.4844 5.34375 20.625
Q7.07812 23.7812 9.89062 25.6875
Q12.7031 27.5938 16.2188 28.5625
Q18.7969 29.25 24.0312 29.8906
Q34.6719 31.1562 39.7031 32.9062
Q39.75 34.7188 39.75 35.2031
Q39.75 40.5781 37.25 42.7812
Q33.8906 45.75 27.25 45.75
Q21.0469 45.75 18.0938 43.5781
Q15.1406 41.4062 13.7188 35.8906
L5.125 37.0625
Q6.29688 42.5781 8.98438 45.9688
Q11.6719 49.3594 16.75 51.1875
Q21.8281 53.0312 28.5156 53.0312
Q35.1562 53.0312 39.2969 51.4688
Q43.4531 49.9062 45.4062 47.5312
Q47.3594 45.1719 48.1406 41.5469
Q48.5781 39.3125 48.5781 33.4531
L48.5781 21.7344
Q48.5781 9.46875 49.1406 6.21875
Q49.7031 2.98438 51.375 0
L42.1875 0
Q40.8281 2.73438 40.4375 6.39062
M39.7031 26.0312
Q34.9062 24.0781 25.3438 22.7031
Q19.9219 21.9219 17.6719 20.9375
Q15.4375 19.9688 14.2031 18.0938
Q12.9844 16.2188 12.9844 13.9219
Q12.9844 10.4062 15.6406 8.0625
Q18.3125 5.71875 23.4375 5.71875
Q28.5156 5.71875 32.4688 7.9375
Q36.4219 10.1562 38.2812 14.0156
Q39.7031 17 39.7031 22.7969
z
" id="ArialMT-61"/>
      <path d="
M6.20312 -19.9688
L5.21875 -11.7188
Q8.10938 -12.5 10.25 -12.5
Q13.1875 -12.5 14.9375 -11.5156
Q16.7031 -10.5469 17.8281 -8.79688
Q18.6562 -7.46875 20.5156 -2.25
Q20.75 -1.51562 21.2969 -0.09375
L1.60938 51.8594
L11.0781 51.8594
L21.875 21.8281
Q23.9688 16.1094 25.6406 9.8125
Q27.1562 15.875 29.25 21.625
L40.3281 51.8594
L49.125 51.8594
L29.3906 -0.875
Q26.2188 -9.42188 24.4688 -12.6406
Q22.125 -17 19.0938 -19.0156
Q16.0625 -21.0469 11.8594 -21.0469
Q9.32812 -21.0469 6.20312 -19.9688" id="ArialMT-79"/>
      <path d="
M42.0938 16.7031
L51.1719 15.5781
Q49.0312 7.625 43.2188 3.21875
Q37.4062 -1.17188 28.375 -1.17188
Q17 -1.17188 10.3281 5.82812
Q3.65625 12.8438 3.65625 25.4844
Q3.65625 38.5781 10.3906 45.7969
Q17.1406 53.0312 27.875 53.0312
Q38.2812 53.0312 44.875 45.9531
Q51.4688 38.875 51.4688 26.0312
Q51.4688 25.25 51.4219 23.6875
L12.75 23.6875
Q13.2344 15.1406 17.5781 10.5938
Q21.9219 6.0625 28.4219 6.0625
Q33.25 6.0625 36.6719 8.59375
Q40.0938 11.1406 42.0938 16.7031
M13.2344 30.9062
L42.1875 30.9062
Q41.6094 37.4531 38.875 40.7188
Q34.6719 45.7969 27.9844 45.7969
Q21.9219 45.7969 17.7969 41.75
Q13.6719 37.7031 13.2344 30.9062" id="ArialMT-65"/>
      <path d="
M25.7812 7.85938
L27.0469 0.09375
Q23.3438 -0.6875 20.4062 -0.6875
Q15.625 -0.6875 12.9844 0.828125
Q10.3594 2.34375 9.28125 4.8125
Q8.20312 7.28125 8.20312 15.1875
L8.20312 45.0156
L1.76562 45.0156
L1.76562 51.8594
L8.20312 51.8594
L8.20312 64.7031
L16.9375 69.9688
L16.9375 51.8594
L25.7812 51.8594
L25.7812 45.0156
L16.9375 45.0156
L16.9375 14.7031
Q16.9375 10.9375 17.4062 9.85938
Q17.875 8.79688 18.9219 8.15625
Q19.9688 7.51562 21.9219 7.51562
Q23.3906 7.51562 25.7812 7.85938" id="ArialMT-74"/>
      <path d="
M40.5781 0
L40.5781 7.625
Q34.5156 -1.17188 24.125 -1.17188
Q19.5312 -1.17188 15.5469 0.578125
Q11.5781 2.34375 9.64062 5
Q7.71875 7.67188 6.9375 11.5312
Q6.39062 14.1094 6.39062 19.7344
L6.39062 51.8594
L15.1875 51.8594
L15.1875 23.0938
Q15.1875 16.2188 15.7188 13.8125
Q16.5469 10.3594 19.2344 8.375
Q21.9219 6.39062 25.875 6.39062
Q29.8281 6.39062 33.2969 8.42188
Q36.7656 10.4531 38.2031 13.9375
Q39.6562 17.4375 39.6562 24.0781
L39.6562 51.8594
L48.4375 51.8594
L48.4375 0
z
" id="ArialMT-75"/>
      <path d="
M7.71875 0
L7.71875 71.5781
L34.7188 71.5781
Q41.8438 71.5781 45.6094 70.9062
Q50.875 70.0156 54.4375 67.5469
Q58.0156 65.0938 60.1875 60.6406
Q62.3594 56.2031 62.3594 50.875
Q62.3594 41.75 56.5469 35.4219
Q50.7344 29.1094 35.5469 29.1094
L17.1875 29.1094
L17.1875 0
z

M17.1875 37.5469
L35.6875 37.5469
Q44.875 37.5469 48.7344 40.9688
Q52.5938 44.3906 52.5938 50.5938
Q52.5938 55.0781 50.3125 58.2656
Q48.0469 61.4688 44.3438 62.5
Q41.9375 63.1406 35.5 63.1406
L17.1875 63.1406
z
" id="ArialMT-50"/>
      <path d="
M6.5 0
L6.5 51.8594
L14.4062 51.8594
L14.4062 44
Q17.4375 49.5156 20 51.2656
Q22.5625 53.0312 25.6406 53.0312
Q30.0781 53.0312 34.6719 50.2031
L31.6406 42.0469
Q28.4219 43.9531 25.2031 43.9531
Q22.3125 43.9531 20.0156 42.2188
Q17.7188 40.4844 16.75 37.4062
Q15.2812 32.7188 15.2812 27.1562
L15.2812 0
z
" id="ArialMT-72"/>
      <path d="
M3.07812 15.4844
L11.7656 16.8438
Q12.5 11.625 15.8438 8.84375
Q19.1875 6.0625 25.2031 6.0625
Q31.25 6.0625 34.1719 8.51562
Q37.1094 10.9844 37.1094 14.3125
Q37.1094 17.2812 34.5156 19
Q32.7188 20.1719 25.5312 21.9688
Q15.875 24.4219 12.1406 26.2031
Q8.40625 27.9844 6.46875 31.125
Q4.54688 34.2812 4.54688 38.0938
Q4.54688 41.5469 6.125 44.5
Q7.71875 47.4688 10.4531 49.4219
Q12.5 50.9219 16.0312 51.9688
Q19.5781 53.0312 23.6406 53.0312
Q29.7344 53.0312 34.3438 51.2656
Q38.9688 49.5156 41.1562 46.5
Q43.3594 43.5 44.1875 38.4844
L35.5938 37.3125
Q35.0156 41.3125 32.2031 43.5469
Q29.3906 45.7969 24.2656 45.7969
Q18.2188 45.7969 15.625 43.7969
Q13.0312 41.7969 13.0312 39.1094
Q13.0312 37.4062 14.1094 36.0312
Q15.1875 34.625 17.4844 33.6875
Q18.7969 33.2031 25.25 31.4531
Q34.5781 28.9531 38.25 27.3594
Q41.9375 25.7812 44.0312 22.75
Q46.1406 19.7344 46.1406 15.2344
Q46.1406 10.8438 43.5781 6.95312
Q41.0156 3.07812 36.1719 0.953125
Q31.3438 -1.17188 25.25 -1.17188
Q15.1406 -1.17188 9.84375 3.03125
Q4.54688 7.23438 3.07812 15.4844" id="ArialMT-73"/>
      <path d="
M12.3594 -21.0469
L6.0625 -21.0469
Q20.6562 2.39062 20.6562 25.875
Q20.6562 35.0625 18.5625 44.0938
Q16.8906 51.4219 13.9219 58.1562
Q12.0156 62.5469 6.0625 72.7969
L12.3594 72.7969
Q21.5312 60.5469 25.9219 48.1875
Q29.6875 37.5469 29.6875 25.9219
Q29.6875 12.75 24.625 0.4375
Q19.5781 -11.8594 12.3594 -21.0469" id="ArialMT-29"/>
      <path d="
M6.59375 0
L6.59375 51.8594
L14.5 51.8594
L14.5 44.4844
Q20.2188 53.0312 31 53.0312
Q35.6875 53.0312 39.625 51.3438
Q43.5625 49.6562 45.5156 46.9219
Q47.4688 44.1875 48.25 40.4375
Q48.7344 37.9844 48.7344 31.8906
L48.7344 0
L39.9375 0
L39.9375 31.5469
Q39.9375 36.9219 38.9062 39.5781
Q37.8906 42.2344 35.2812 43.8125
Q32.6719 45.4062 29.1562 45.4062
Q23.5312 45.4062 19.4531 41.8438
Q15.375 38.2812 15.375 28.3281
L15.375 0
z
" id="ArialMT-6e"/>
      <path d="
M23.3906 -21.0469
Q16.1094 -11.8594 11.0781 0.4375
Q6.0625 12.75 6.0625 25.9219
Q6.0625 37.5469 9.8125 48.1875
Q14.2031 60.5469 23.3906 72.7969
L29.6875 72.7969
Q23.7812 62.6406 21.875 58.2969
Q18.8906 51.5625 17.1875 44.2344
Q15.0938 35.1094 15.0938 25.875
Q15.0938 2.39062 29.6875 -21.0469
z
" id="ArialMT-28"/>
      <path d="
M6.64062 61.4688
L6.64062 71.5781
L15.4375 71.5781
L15.4375 61.4688
z

M6.64062 0
L6.64062 51.8594
L15.4375 51.8594
L15.4375 0
z
" id="ArialMT-69"/>
      <path id="ArialMT-20"/>
     </defs>
     <g style="fill:#262626;" transform="translate(253.144125 354.457125)scale(0.144 -0.144)">
      <use xlink:href="#ArialMT-50"/>
      <use x="66.69921875" xlink:href="#ArialMT-72"/>
      <use x="100.0" xlink:href="#ArialMT-65"/>
      <use x="155.615234375" xlink:href="#ArialMT-73"/>
      <use x="205.615234375" xlink:href="#ArialMT-73"/>
      <use x="255.615234375" xlink:href="#ArialMT-75"/>
      <use x="311.23046875" xlink:href="#ArialMT-72"/>
      <use x="344.53125" xlink:href="#ArialMT-65"/>
      <use x="400.146484375" xlink:href="#ArialMT-20"/>
      <use x="427.9296875" xlink:href="#ArialMT-28"/>
      <use x="461.23046875" xlink:href="#ArialMT-61"/>
      <use x="516.845703125" xlink:href="#ArialMT-72"/>
      <use x="550.146484375" xlink:href="#ArialMT-62"/>
      <use x="605.76171875" xlink:href="#ArialMT-69"/>
      <use x="627.978515625" xlink:href="#ArialMT-74"/>
      <use x="655.76171875" xlink:href="#ArialMT-72"/>
      <use x="689.0625" xlink:href="#ArialMT-61"/>
      <use x="744.677734375" xlink:href="#ArialMT-72"/>
      <use x="777.978515625" xlink:href="#ArialMT-79"/>
      <use x="827.978515625" xlink:href="#ArialMT-20"/>
      <use x="855.76171875" xlink:href="#ArialMT-75"/>
      <use x="911.376953125" xlink:href="#ArialMT-6e"/>
      <use x="966.9921875" xlink:href="#ArialMT-69"/>
      <use x="989.208984375" xlink:href="#ArialMT-74"/>
      <use x="1016.9921875" xlink:href="#ArialMT-73"/>
      <use x="1066.9921875" xlink:href="#ArialMT-29"/>
     </g>
    </g>
   </g>
   <g id="matplotlib.axis_2">
    <g id="ytick_1">
     <g id="line2d_6">
      <defs>
       <path d="
M0 0
L-6 0" id="m0dfa6ce036" style="stroke:#262626;"/>
      </defs>
      <g>
       <use style="fill:#262626;stroke:#262626;" x="81.0" xlink:href="#m0dfa6ce036" y="315.0"/>
      </g>
     </g>
     <g id="text_7">
      <!-- 0 -->
      <g style="fill:#262626;" transform="translate(62.399375 318.1021875)scale(0.12 -0.12)">
       <use xlink:href="#ArialMT-30"/>
      </g>
     </g>
    </g>
    <g id="ytick_2">
     <g id="line2d_7">
      <g>
       <use style="fill:#262626;stroke:#262626;" x="81.0" xlink:href="#m0dfa6ce036" y="280.125"/>
      </g>
     </g>
     <g id="text_8">
      <!-- 50 -->
      <g style="fill:#262626;" transform="translate(55.72625 283.2271875)scale(0.12 -0.12)">
       <use xlink:href="#ArialMT-35"/>
       <use x="55.615234375" xlink:href="#ArialMT-30"/>
      </g>
     </g>
    </g>
    <g id="ytick_3">
     <g id="line2d_8">
      <g>
       <use style="fill:#262626;stroke:#262626;" x="81.0" xlink:href="#m0dfa6ce036" y="245.25"/>
      </g>
     </g>
     <g id="text_9">
      <!-- 100 -->
      <g style="fill:#262626;" transform="translate(49.86125 248.3521875)scale(0.12 -0.12)">
       <use xlink:href="#ArialMT-31"/>
       <use x="55.615234375" xlink:href="#ArialMT-30"/>
       <use x="111.23046875" xlink:href="#ArialMT-30"/>
      </g>
     </g>
    </g>
    <g id="ytick_4">
     <g id="line2d_9">
      <g>
       <use style="fill:#262626;stroke:#262626;" x="81.0" xlink:href="#m0dfa6ce036" y="210.375"/>
      </g>
     </g>
     <g id="text_10">
      <!-- 150 -->
      <g style="fill:#262626;" transform="translate(49.86125 213.4771875)scale(0.12 -0.12)">
       <use xlink:href="#ArialMT-31"/>
       <use x="55.615234375" xlink:href="#ArialMT-35"/>
       <use x="111.23046875" xlink:href="#ArialMT-30"/>
      </g>
     </g>
    </g>
    <g id="ytick_5">
     <g id="line2d_10">
      <g>
       <use style="fill:#262626;stroke:#262626;" x="81.0" xlink:href="#m0dfa6ce036" y="175.5"/>
      </g>
     </g>
     <g id="text_11">
      <!-- 200 -->
      <defs>
       <path d="
M50.3438 8.45312
L50.3438 0
L3.03125 0
Q2.9375 3.17188 4.04688 6.10938
Q5.85938 10.9375 9.82812 15.625
Q13.8125 20.3125 21.3438 26.4688
Q33.0156 36.0312 37.1094 41.625
Q41.2188 47.2188 41.2188 52.2031
Q41.2188 57.4219 37.4688 61
Q33.7344 64.5938 27.7344 64.5938
Q21.3906 64.5938 17.5781 60.7812
Q13.7656 56.9844 13.7188 50.25
L4.6875 51.1719
Q5.60938 61.2812 11.6562 66.5781
Q17.7188 71.875 27.9375 71.875
Q38.2344 71.875 44.2344 66.1562
Q50.25 60.4531 50.25 52
Q50.25 47.7031 48.4844 43.5469
Q46.7344 39.4062 42.6562 34.8125
Q38.5781 30.2188 29.1094 22.2188
Q21.1875 15.5781 18.9375 13.2031
Q16.7031 10.8438 15.2344 8.45312
z
" id="ArialMT-32"/>
      </defs>
      <g style="fill:#262626;" transform="translate(48.906875 178.6021875)scale(0.12 -0.12)">
       <use xlink:href="#ArialMT-32"/>
       <use x="55.615234375" xlink:href="#ArialMT-30"/>
       <use x="111.23046875" xlink:href="#ArialMT-30"/>
      </g>
     </g>
    </g>
    <g id="ytick_6">
     <g id="line2d_11">
      <g>
       <use style="fill:#262626;stroke:#262626;" x="81.0" xlink:href="#m0dfa6ce036" y="140.625"/>
      </g>
     </g>
     <g id="text_12">
      <!-- 250 -->
      <g style="fill:#262626;" transform="translate(48.906875 143.7271875)scale(0.12 -0.12)">
       <use xlink:href="#ArialMT-32"/>
       <use x="55.615234375" xlink:href="#ArialMT-35"/>
       <use x="111.23046875" xlink:href="#ArialMT-30"/>
      </g>
     </g>
    </g>
    <g id="ytick_7">
     <g id="line2d_12">
      <g>
       <use style="fill:#262626;stroke:#262626;" x="81.0" xlink:href="#m0dfa6ce036" y="105.75"/>
      </g>
     </g>
     <g id="text_13">
      <!-- 300 -->
      <defs>
       <path d="
M4.20312 18.8906
L12.9844 20.0625
Q14.5 12.5938 18.1406 9.29688
Q21.7812 6 27 6
Q33.2031 6 37.4688 10.2969
Q41.75 14.5938 41.75 20.9531
Q41.75 27 37.7969 30.9219
Q33.8438 34.8594 27.7344 34.8594
Q25.25 34.8594 21.5312 33.8906
L22.5156 41.6094
Q23.3906 41.5 23.9219 41.5
Q29.5469 41.5 34.0312 44.4219
Q38.5312 47.3594 38.5312 53.4688
Q38.5312 58.2969 35.25 61.4688
Q31.9844 64.6562 26.8125 64.6562
Q21.6875 64.6562 18.2656 61.4219
Q14.8438 58.2031 13.875 51.7656
L5.07812 53.3281
Q6.6875 62.1562 12.3906 67.0156
Q18.1094 71.875 26.6094 71.875
Q32.4688 71.875 37.3906 69.3594
Q42.3281 66.8438 44.9375 62.5
Q47.5625 58.1562 47.5625 53.2656
Q47.5625 48.6406 45.0625 44.8281
Q42.5781 41.0156 37.7031 38.7656
Q44.0469 37.3125 47.5625 32.6875
Q51.0781 28.0781 51.0781 21.1406
Q51.0781 11.7656 44.2344 5.25
Q37.4062 -1.26562 26.9531 -1.26562
Q17.5312 -1.26562 11.2969 4.34375
Q5.07812 9.96875 4.20312 18.8906" id="ArialMT-33"/>
      </defs>
      <g style="fill:#262626;" transform="translate(49.05875 108.8521875)scale(0.12 -0.12)">
       <use xlink:href="#ArialMT-33"/>
       <use x="55.615234375" xlink:href="#ArialMT-30"/>
       <use x="111.23046875" xlink:href="#ArialMT-30"/>
      </g>
     </g>
    </g>
    <g id="ytick_8">
     <g id="line2d_13">
      <g>
       <use style="fill:#262626;stroke:#262626;" x="81.0" xlink:href="#m0dfa6ce036" y="70.875"/>
      </g>
     </g>
     <g id="text_14">
      <!-- 350 -->
      <g style="fill:#262626;" transform="translate(49.05875 73.9771875)scale(0.12 -0.12)">
       <use xlink:href="#ArialMT-33"/>
       <use x="55.615234375" xlink:href="#ArialMT-35"/>
       <use x="111.23046875" xlink:href="#ArialMT-30"/>
      </g>
     </g>
    </g>
    <g id="ytick_9">
     <g id="line2d_14">
      <g>
       <use style="fill:#262626;stroke:#262626;" x="81.0" xlink:href="#m0dfa6ce036" y="36.0"/>
      </g>
     </g>
     <g id="text_15">
      <!-- 400 -->
      <defs>
       <path d="
M32.3281 0
L32.3281 17.1406
L1.26562 17.1406
L1.26562 25.2031
L33.9375 71.5781
L41.1094 71.5781
L41.1094 25.2031
L50.7812 25.2031
L50.7812 17.1406
L41.1094 17.1406
L41.1094 0
z

M32.3281 25.2031
L32.3281 57.4688
L9.90625 25.2031
z
" id="ArialMT-34"/>
      </defs>
      <g style="fill:#262626;" transform="translate(48.70625 39.1021875)scale(0.12 -0.12)">
       <use xlink:href="#ArialMT-34"/>
       <use x="55.615234375" xlink:href="#ArialMT-30"/>
       <use x="111.23046875" xlink:href="#ArialMT-30"/>
      </g>
     </g>
    </g>
    <g id="text_16">
     <!-- Activity of neuron (Hz) -->
     <defs>
      <path d="
M40.4375 19
L49.0781 17.875
Q47.6562 8.9375 41.8125 3.875
Q35.9844 -1.17188 27.4844 -1.17188
Q16.8438 -1.17188 10.375 5.78125
Q3.90625 12.75 3.90625 25.7344
Q3.90625 34.125 6.6875 40.4219
Q9.46875 46.7344 15.1562 49.875
Q20.8438 53.0312 27.5469 53.0312
Q35.9844 53.0312 41.3594 48.75
Q46.7344 44.4844 48.25 36.625
L39.7031 35.2969
Q38.4844 40.5312 35.375 43.1562
Q32.2812 45.7969 27.875 45.7969
Q21.2344 45.7969 17.0781 41.0312
Q12.9375 36.2812 12.9375 25.9844
Q12.9375 15.5312 16.9375 10.7969
Q20.9531 6.0625 27.3906 6.0625
Q32.5625 6.0625 36.0312 9.23438
Q39.5 12.4062 40.4375 19" id="ArialMT-63"/>
      <path d="
M8.01562 0
L8.01562 71.5781
L17.4844 71.5781
L17.4844 42.1875
L54.6875 42.1875
L54.6875 71.5781
L64.1562 71.5781
L64.1562 0
L54.6875 0
L54.6875 33.7344
L17.4844 33.7344
L17.4844 0
z
" id="ArialMT-48"/>
      <path d="
M8.6875 0
L8.6875 45.0156
L0.921875 45.0156
L0.921875 51.8594
L8.6875 51.8594
L8.6875 57.375
Q8.6875 62.5938 9.625 65.1406
Q10.8906 68.5625 14.0781 70.6719
Q17.2812 72.7969 23.0469 72.7969
Q26.7656 72.7969 31.25 71.9219
L29.9375 64.2656
Q27.2031 64.75 24.75 64.75
Q20.75 64.75 19.0938 63.0312
Q17.4375 61.3281 17.4375 56.6406
L17.4375 51.8594
L27.5469 51.8594
L27.5469 45.0156
L17.4375 45.0156
L17.4375 0
z
" id="ArialMT-66"/>
      <path d="
M-0.140625 0
L27.3438 71.5781
L37.5469 71.5781
L66.8438 0
L56.0625 0
L47.7031 21.6875
L17.7812 21.6875
L9.90625 0
z

M20.5156 29.3906
L44.7812 29.3906
L37.3125 49.2188
Q33.8906 58.25 32.2344 64.0625
Q30.8594 57.1719 28.375 50.3906
z
" id="ArialMT-41"/>
      <path d="
M21 0
L1.26562 51.8594
L10.5469 51.8594
L21.6875 20.7969
Q23.4844 15.7656 25 10.3594
Q26.1719 14.4531 28.2656 20.2188
L39.7969 51.8594
L48.8281 51.8594
L29.2031 0
z
" id="ArialMT-76"/>
      <path d="
M3.32812 25.9219
Q3.32812 40.3281 11.3281 47.2656
Q18.0156 53.0312 27.6406 53.0312
Q38.3281 53.0312 45.1094 46.0156
Q51.9062 39.0156 51.9062 26.6562
Q51.9062 16.6562 48.9062 10.9062
Q45.9062 5.17188 40.1562 2
Q34.4219 -1.17188 27.6406 -1.17188
Q16.75 -1.17188 10.0312 5.8125
Q3.32812 12.7969 3.32812 25.9219
M12.3594 25.9219
Q12.3594 15.9688 16.7031 11.0156
Q21.0469 6.0625 27.6406 6.0625
Q34.1875 6.0625 38.5312 11.0312
Q42.875 16.0156 42.875 26.2188
Q42.875 35.8438 38.5 40.7969
Q34.125 45.75 27.6406 45.75
Q21.0469 45.75 16.7031 40.8125
Q12.3594 35.8906 12.3594 25.9219" id="ArialMT-6f"/>
      <path d="
M1.95312 0
L1.95312 7.125
L34.9688 45.0156
Q29.3438 44.7344 25.0469 44.7344
L3.90625 44.7344
L3.90625 51.8594
L46.2969 51.8594
L46.2969 46.0469
L18.2188 13.1406
L12.7969 7.125
Q18.7031 7.5625 23.875 7.5625
L47.8594 7.5625
L47.8594 0
z
" id="ArialMT-7a"/>
     </defs>
     <g style="fill:#262626;" transform="translate(40.6755 246.069)rotate(-90.0)scale(0.144 -0.144)">
      <use xlink:href="#ArialMT-41"/>
      <use x="66.69921875" xlink:href="#ArialMT-63"/>
      <use x="116.69921875" xlink:href="#ArialMT-74"/>
      <use x="144.482421875" xlink:href="#ArialMT-69"/>
      <use x="166.69921875" xlink:href="#ArialMT-76"/>
      <use x="216.69921875" xlink:href="#ArialMT-69"/>
      <use x="238.916015625" xlink:href="#ArialMT-74"/>
      <use x="266.69921875" xlink:href="#ArialMT-79"/>
      <use x="316.69921875" xlink:href="#ArialMT-20"/>
      <use x="344.482421875" xlink:href="#ArialMT-6f"/>
      <use x="400.09765625" xlink:href="#ArialMT-66"/>
      <use x="427.880859375" xlink:href="#ArialMT-20"/>
      <use x="455.6640625" xlink:href="#ArialMT-6e"/>
      <use x="511.279296875" xlink:href="#ArialMT-65"/>
      <use x="566.89453125" xlink:href="#ArialMT-75"/>
      <use x="622.509765625" xlink:href="#ArialMT-72"/>
      <use x="655.810546875" xlink:href="#ArialMT-6f"/>
      <use x="711.42578125" xlink:href="#ArialMT-6e"/>
      <use x="767.041015625" xlink:href="#ArialMT-20"/>
      <use x="794.82421875" xlink:href="#ArialMT-28"/>
      <use x="828.125" xlink:href="#ArialMT-48"/>
      <use x="900.341796875" xlink:href="#ArialMT-7a"/>
      <use x="950.341796875" xlink:href="#ArialMT-29"/>
     </g>
    </g>
   </g>
   <g id="line2d_15">
    <path clip-path="url(#pc2af756b65)" d="
M81 315
L91.249 315
L101.498 315
L111.747 315
L121.996 315
L132.245 315
L142.494 315
L152.743 315
L162.992 315
L173.241 315
L183.49 315
L193.739 315
L203.988 315
L214.237 315
L224.486 315
L234.735 315
L244.984 315
L255.233 315
L265.482 299.315
L275.731 279.771
L285.98 264.089
L296.229 250.192
L306.478 237.637
L316.727 226.192
L326.976 215.698
L337.224 206.032
L347.473 197.096
L357.722 188.808
L367.971 181.099
L378.22 173.908
L388.469 167.185
L398.718 160.885
L408.967 154.969
L419.216 149.403
L429.465 144.157
L439.714 139.203
L449.963 134.518
L460.212 130.081
L470.461 125.872
L480.71 121.873
L490.959 118.071
L501.208 114.45
L511.457 110.998
L521.706 107.703
L531.955 104.555
L542.204 101.544
L552.453 98.6613
L562.702 95.8991
L572.951 93.2497
L583.2 90.7066" style="fill:none;stroke:#4c72b0;stroke-linecap:round;stroke-width:2.0;"/>
   </g>
   <g id="line2d_16">
    <path clip-path="url(#pc2af756b65)" d="
M81 130.478
L91.249 133.629
L101.498 136.904
L111.747 140.309
L121.996 143.854
L132.245 147.546
L142.494 151.395
L152.743 155.412
L162.992 159.607
L173.241 163.993
L183.49 168.583
L193.739 173.393
L203.988 178.437
L214.237 183.735
L224.486 189.307
L234.735 195.173
L244.984 201.359
L255.233 207.893
L265.482 214.805
L275.731 222.133
L285.98 229.917
L296.229 238.207
L306.478 247.063
L316.727 256.563
L326.976 266.821
L337.224 278.035
L347.473 290.753
L357.722 315
L367.971 315
L378.22 315
L388.469 315
L398.718 315
L408.967 315
L419.216 315
L429.465 315
L439.714 315
L449.963 315
L460.212 315
L470.461 315
L480.71 315
L490.959 315
L501.208 315
L511.457 315
L521.706 315
L531.955 315
L542.204 315
L552.453 315
L562.702 315
L572.951 315
L583.2 315" style="fill:none;stroke:#55a868;stroke-linecap:round;stroke-width:2.0;"/>
   </g>
   <g id="line2d_17">
    <path clip-path="url(#pc2af756b65)" d="
M81 89.9125
L91.249 91.6466
L101.498 93.43
L111.747 95.2649
L121.996 97.1535
L132.245 99.0983
L142.494 101.102
L152.743 103.167
L162.992 105.296
L173.241 107.492
L183.49 109.759
L193.739 112.1
L203.988 114.519
L214.237 117.019
L224.486 119.605
L234.735 122.282
L244.984 125.054
L255.233 127.926
L265.482 130.904
L275.731 133.994
L285.98 137.202
L296.229 140.536
L306.478 144.002
L316.727 147.61
L326.976 151.367
L337.224 155.283
L347.473 159.37
L357.722 163.637
L367.971 168.098
L378.22 172.766
L388.469 177.656
L398.718 182.784
L408.967 188.169
L419.216 193.831
L429.465 199.792
L439.714 206.077
L449.963 212.715
L460.212 219.737
L470.461 227.18
L480.71 235.088
L490.959 243.512
L501.208 252.518
L511.457 262.194
L521.706 272.679
L531.955 284.271
L542.204 298.193
L552.453 315
L562.702 315
L572.951 315
L583.2 315" style="fill:none;stroke:#c44e52;stroke-linecap:round;stroke-width:2.0;"/>
   </g>
   <g id="line2d_18">
    <path clip-path="url(#pc2af756b65)" d="
M81 117.476
L91.249 119.307
L101.498 121.183
L111.747 123.106
L121.996 125.077
L132.245 127.098
L142.494 129.171
L152.743 131.299
L162.992 133.483
L173.241 135.725
L183.49 138.029
L193.739 140.397
L203.988 142.83
L214.237 145.333
L224.486 147.908
L234.735 150.558
L244.984 153.286
L255.233 156.097
L265.482 158.994
L275.731 161.981
L285.98 165.063
L296.229 168.243
L306.478 171.527
L316.727 174.92
L326.976 178.428
L337.224 182.056
L347.473 185.811
L357.722 189.7
L367.971 193.731
L378.22 197.911
L388.469 202.248
L398.718 206.754
L408.967 211.437
L419.216 216.309
L429.465 221.383
L439.714 226.672
L449.963 232.192
L460.212 237.959
L470.461 243.995
L480.71 250.324
L490.959 256.975
L501.208 263.988
L511.457 271.42
L521.706 279.371
L531.955 288.06
L542.204 298.3
L552.453 315
L562.702 315
L572.951 315
L583.2 315" style="fill:none;stroke:#8172b2;stroke-linecap:round;stroke-width:2.0;"/>
   </g>
   <g id="line2d_19">
    <path clip-path="url(#pc2af756b65)" d="
M81 42.9825
L91.249 44.5491
L101.498 46.1809
L111.747 47.8823
L121.996 49.6576
L132.245 51.5119
L142.494 53.4505
L152.743 55.4793
L162.992 57.6048
L173.241 59.8341
L183.49 62.1749
L193.739 64.6358
L203.988 67.2263
L214.237 69.9569
L224.486 72.8394
L234.735 75.8868
L244.984 79.1135
L255.233 82.536
L265.482 86.1727
L275.731 90.0442
L285.98 94.1742
L296.229 98.5894
L306.478 103.32
L316.727 108.402
L326.976 113.876
L337.224 119.789
L347.473 126.195
L357.722 133.16
L367.971 140.76
L378.22 149.086
L388.469 158.249
L398.718 168.381
L408.967 179.648
L419.216 192.253
L429.465 206.454
L439.714 222.59
L449.963 241.119
L460.212 262.744
L470.461 289.211
L480.71 315
L490.959 315
L501.208 315
L511.457 315
L521.706 315
L531.955 315
L542.204 315
L552.453 315
L562.702 315
L572.951 315
L583.2 315" style="fill:none;stroke:#ccb974;stroke-linecap:round;stroke-width:2.0;"/>
   </g>
   <g id="line2d_20">
    <path clip-path="url(#pc2af756b65)" d="
M81 315
L91.249 315
L101.498 315
L111.747 315
L121.996 315
L132.245 315
L142.494 315
L152.743 315
L162.992 315
L173.241 315
L183.49 315
L193.739 315
L203.988 315
L214.237 315
L224.486 315
L234.735 315
L244.984 315
L255.233 315
L265.482 315
L275.731 315
L285.98 315
L296.229 315
L306.478 315
L316.727 315
L326.976 315
L337.224 315
L347.473 315
L357.722 315
L367.971 315
L378.22 315
L388.469 315
L398.718 315
L408.967 315
L419.216 315
L429.465 315
L439.714 315
L449.963 315
L460.212 315
L470.461 315
L480.71 315
L490.959 315
L501.208 315
L511.457 315
L521.706 315
L531.955 315
L542.204 315
L552.453 248.725
L562.702 200.207
L572.951 166.057
L583.2 140.633" style="fill:none;stroke:#64b5cd;stroke-linecap:round;stroke-width:2.0;"/>
   </g>
   <g id="line2d_21">
    <path clip-path="url(#pc2af756b65)" d="
M81 79.6668
L91.249 84.0219
L101.498 88.7251
L111.747 93.8196
L121.996 99.3566
L132.245 105.396
L142.494 112.011
L152.743 119.286
L162.992 127.326
L173.241 136.259
L183.49 146.242
L193.739 157.475
L203.988 170.207
L214.237 184.764
L224.486 201.575
L234.735 221.227
L244.984 244.568
L255.233 273.083
L265.482 315
L275.731 315
L285.98 315
L296.229 315
L306.478 315
L316.727 315
L326.976 315
L337.224 315
L347.473 315
L357.722 315
L367.971 315
L378.22 315
L388.469 315
L398.718 315
L408.967 315
L419.216 315
L429.465 315
L439.714 315
L449.963 315
L460.212 315
L470.461 315
L480.71 315
L490.959 315
L501.208 315
L511.457 315
L521.706 315
L531.955 315
L542.204 315
L552.453 315
L562.702 315
L572.951 315
L583.2 315" style="fill:none;stroke:#4c72b0;stroke-linecap:round;stroke-width:2.0;"/>
   </g>
   <g id="line2d_22">
    <path clip-path="url(#pc2af756b65)" d="
M81 315
L91.249 307.315
L101.498 297.52
L111.747 291.235
L121.996 285.685
L132.245 280.531
L142.494 275.651
L152.743 270.986
L162.992 266.502
L173.241 262.177
L183.49 257.996
L193.739 253.946
L203.988 250.018
L214.237 246.205
L224.486 242.5
L234.735 238.897
L244.984 235.392
L255.233 231.979
L265.482 228.654
L275.731 225.415
L285.98 222.256
L296.229 219.175
L306.478 216.169
L316.727 213.235
L326.976 210.37
L337.224 207.571
L347.473 204.837
L357.722 202.165
L367.971 199.553
L378.22 196.999
L388.469 194.5
L398.718 192.056
L408.967 189.663
L419.216 187.322
L429.465 185.029
L439.714 182.783
L449.963 180.583
L460.212 178.428
L470.461 176.316
L480.71 174.246
L490.959 172.216
L501.208 170.226
L511.457 168.274
L521.706 166.359
L531.955 164.48
L542.204 162.637
L552.453 160.827
L562.702 159.051
L572.951 157.306
L583.2 155.594" style="fill:none;stroke:#55a868;stroke-linecap:round;stroke-width:2.0;"/>
   </g>
   <g id="line2d_23">
    <path clip-path="url(#pc2af756b65)" d="
M81 315
L91.249 315
L101.498 315
L111.747 315
L121.996 315
L132.245 315
L142.494 315
L152.743 315
L162.992 315
L173.241 315
L183.49 315
L193.739 315
L203.988 315
L214.237 315
L224.486 315
L234.735 315
L244.984 315
L255.233 315
L265.482 315
L275.731 315
L285.98 315
L296.229 315
L306.478 296.131
L316.727 282.46
L326.976 270.84
L337.224 260.298
L347.473 250.566
L357.722 241.51
L367.971 233.043
L378.22 225.099
L388.469 217.626
L398.718 210.581
L408.967 203.925
L419.216 197.627
L429.465 191.656
L439.714 185.989
L449.963 180.601
L460.212 175.472
L470.461 170.584
L480.71 165.92
L490.959 161.465
L501.208 157.205
L511.457 153.127
L521.706 149.22
L531.955 145.474
L542.204 141.878
L552.453 138.424
L562.702 135.103
L572.951 131.909
L583.2 128.833" style="fill:none;stroke:#c44e52;stroke-linecap:round;stroke-width:2.0;"/>
   </g>
   <g id="line2d_24">
    <path clip-path="url(#pc2af756b65)" d="
M81 315
L91.249 315
L101.498 315
L111.747 315
L121.996 315
L132.245 315
L142.494 315
L152.743 315
L162.992 315
L173.241 315
L183.49 315
L193.739 315
L203.988 315
L214.237 315
L224.486 315
L234.735 315
L244.984 315
L255.233 315
L265.482 315
L275.731 315
L285.98 315
L296.229 315
L306.478 315
L316.727 315
L326.976 315
L337.224 315
L347.473 315
L357.722 315
L367.971 315
L378.22 315
L388.469 315
L398.718 315
L408.967 315
L419.216 269.539
L429.465 243.56
L439.714 221.934
L449.963 203.505
L460.212 187.581
L470.461 173.672
L480.71 161.415
L490.959 150.529
L501.208 140.796
L511.457 132.041
L521.706 124.123
L531.955 116.928
L542.204 110.361
L552.453 104.342
L562.702 98.8064
L572.951 93.6976
L583.2 88.9681" style="fill:none;stroke:#8172b2;stroke-linecap:round;stroke-width:2.0;"/>
   </g>
   <g id="line2d_25">
    <path clip-path="url(#pc2af756b65)" d="
M81 70.7752
L91.249 72.3572
L101.498 73.9879
L111.747 75.6695
L121.996 77.4044
L132.245 79.1952
L142.494 81.0447
L152.743 82.9558
L162.992 84.9317
L173.241 86.9756
L183.49 89.0912
L193.739 91.2823
L203.988 93.553
L214.237 95.9077
L224.486 98.3512
L234.735 100.889
L244.984 103.526
L255.233 106.268
L265.482 109.122
L275.731 112.095
L285.98 115.195
L296.229 118.429
L306.478 121.807
L316.727 125.338
L326.976 129.034
L337.224 132.906
L347.473 136.966
L357.722 141.23
L367.971 145.713
L378.22 150.432
L388.469 155.406
L398.718 160.657
L408.967 166.209
L419.216 172.089
L429.465 178.326
L439.714 184.956
L449.963 192.016
L460.212 199.551
L470.461 207.612
L480.71 216.259
L490.959 225.562
L501.208 235.606
L511.457 246.497
L521.706 258.38
L531.955 271.485
L542.204 286.351
L552.453 315
L562.702 315
L572.951 315
L583.2 315" style="fill:none;stroke:#ccb974;stroke-linecap:round;stroke-width:2.0;"/>
   </g>
   <g id="line2d_26">
    <path clip-path="url(#pc2af756b65)" d="
M81 83.1452
L91.249 85.5888
L101.498 88.1369
L111.747 90.7962
L121.996 93.5741
L132.245 96.4789
L142.494 99.5193
L152.743 102.705
L162.992 106.047
L173.241 109.557
L183.49 113.248
L193.739 117.134
L203.988 121.232
L214.237 125.558
L224.486 130.133
L234.735 134.98
L244.984 140.122
L255.233 145.587
L265.482 151.409
L275.731 157.621
L285.98 164.267
L296.229 171.392
L306.478 179.052
L316.727 187.309
L326.976 196.238
L337.224 205.926
L347.473 216.478
L357.722 228.023
L367.971 240.723
L378.22 254.8
L388.469 270.606
L398.718 289.065
L408.967 315
L419.216 315
L429.465 315
L439.714 315
L449.963 315
L460.212 315
L470.461 315
L480.71 315
L490.959 315
L501.208 315
L511.457 315
L521.706 315
L531.955 315
L542.204 315
L552.453 315
L562.702 315
L572.951 315
L583.2 315" style="fill:none;stroke:#64b5cd;stroke-linecap:round;stroke-width:2.0;"/>
   </g>
   <g id="line2d_27">
    <path clip-path="url(#pc2af756b65)" d="
M81 120.304
L91.249 122.086
L101.498 123.91
L111.747 125.778
L121.996 127.69
L132.245 129.648
L142.494 131.655
L152.743 133.712
L162.992 135.82
L173.241 137.982
L183.49 140.201
L193.739 142.477
L203.988 144.814
L214.237 147.214
L224.486 149.679
L234.735 152.213
L244.984 154.818
L255.233 157.497
L265.482 160.253
L275.731 163.091
L285.98 166.012
L296.229 169.023
L306.478 172.125
L316.727 175.325
L326.976 178.626
L337.224 182.033
L347.473 185.552
L357.722 189.189
L367.971 192.949
L378.22 196.84
L388.469 200.867
L398.718 205.04
L408.967 209.365
L419.216 213.853
L429.465 218.512
L439.714 223.354
L449.963 228.39
L460.212 233.634
L470.461 239.101
L480.71 244.808
L490.959 250.775
L501.208 257.028
L511.457 263.6
L521.706 270.538
L531.955 277.918
L542.204 285.896
L552.453 294.926
L562.702 315
L572.951 315
L583.2 315" style="fill:none;stroke:#4c72b0;stroke-linecap:round;stroke-width:2.0;"/>
   </g>
   <g id="line2d_28">
    <path clip-path="url(#pc2af756b65)" d="
M81 315
L91.249 315
L101.498 315
L111.747 315
L121.996 315
L132.245 315
L142.494 315
L152.743 315
L162.992 315
L173.241 315
L183.49 315
L193.739 315
L203.988 315
L214.237 315
L224.486 315
L234.735 315
L244.984 315
L255.233 294.608
L265.482 285.63
L275.731 277.676
L285.98 270.313
L296.229 263.388
L306.478 256.827
L316.727 250.584
L326.976 244.626
L337.224 238.928
L347.473 233.469
L357.722 228.232
L367.971 223.203
L378.22 218.367
L388.469 213.714
L398.718 209.232
L408.967 204.912
L419.216 200.744
L429.465 196.722
L439.714 192.836
L449.963 189.08
L460.212 185.447
L470.461 181.931
L480.71 178.527
L490.959 175.23
L501.208 172.034
L511.457 168.934
L521.706 165.927
L531.955 163.008
L542.204 160.173
L552.453 157.42
L562.702 154.743
L572.951 152.141
L583.2 149.609" style="fill:none;stroke:#55a868;stroke-linecap:round;stroke-width:2.0;"/>
   </g>
   <g id="line2d_29">
    <path clip-path="url(#pc2af756b65)" d="
M81 109.081
L91.249 111.291
L101.498 113.57
L111.747 115.922
L121.996 118.351
L132.245 120.86
L142.494 123.453
L152.743 126.134
L162.992 128.909
L173.241 131.782
L183.49 134.758
L193.739 137.843
L203.988 141.044
L214.237 144.367
L224.486 147.818
L234.735 151.407
L244.984 155.14
L255.233 159.027
L265.482 163.079
L275.731 167.304
L285.98 171.716
L296.229 176.327
L306.478 181.151
L316.727 186.202
L326.976 191.498
L337.224 197.058
L347.473 202.903
L357.722 209.054
L367.971 215.539
L378.22 222.387
L388.469 229.631
L398.718 237.312
L408.967 245.477
L419.216 254.186
L429.465 263.523
L439.714 273.619
L449.963 284.755
L460.212 298.072
L470.461 315
L480.71 315
L490.959 315
L501.208 315
L511.457 315
L521.706 315
L531.955 315
L542.204 315
L552.453 315
L562.702 315
L572.951 315
L583.2 315" style="fill:none;stroke:#c44e52;stroke-linecap:round;stroke-width:2.0;"/>
   </g>
   <g id="patch_3">
    <path d="
M81 315
L583.2 315" style="fill:none;stroke:#262626;stroke-linecap:square;stroke-linejoin:miter;stroke-width:1.25;"/>
   </g>
   <g id="patch_4">
    <path d="
M81 315
L81 36" style="fill:none;stroke:#262626;stroke-linecap:square;stroke-linejoin:miter;stroke-width:1.25;"/>
   </g>
  </g>
 </g>
 <defs>
  <clipPath id="pc2af756b65">
   <rect height="279.0" width="502.2" x="81.0" y="36.0"/>
  </clipPath>
 </defs>
</svg>
