<?xml version="1.0" encoding="utf-8" standalone="no"?>
<!DOCTYPE svg PUBLIC "-//W3C//DTD SVG 1.1//EN"
  "http://www.w3.org/Graphics/SVG/1.1/DTD/svg11.dtd">
<!-- Created with matplotlib (http://matplotlib.org/) -->
<svg height="360pt" version="1.1" viewBox="0 0 720 360" width="720pt" xmlns="http://www.w3.org/2000/svg" xmlns:xlink="http://www.w3.org/1999/xlink">
 <defs>
  <style type="text/css">
*{stroke-linecap:butt;stroke-linejoin:round;}
  </style>
 </defs>
 <g id="figure_1">
  <g id="patch_1">
   <path d="
M0 360
L720 360
L720 0
L0 0
z
" style="fill:#ffffff;"/>
  </g>
  <g id="axes_1">
   <g id="patch_2">
    <path d="
M61.6078 303.3
L701.733 303.3
L701.733 16.2
L61.6078 16.2
z
" style="fill:#ffffff;"/>
   </g>
   <g id="matplotlib.axis_1">
    <g id="xtick_1">
     <g id="line2d_1">
      <defs>
       <path d="
M0 0
L0 6" id="m44d4eda7dc" style="stroke:#262626;"/>
      </defs>
      <g>
       <use style="fill:#262626;stroke:#262626;" x="61.6078125" xlink:href="#m44d4eda7dc" y="303.3"/>
      </g>
     </g>
     <g id="text_1">
      <!-- −1.0 -->
      <defs>
       <path d="
M4.15625 35.2969
Q4.15625 48 6.76562 55.7344
Q9.375 63.4844 14.5156 67.6719
Q19.6719 71.875 27.4844 71.875
Q33.25 71.875 37.5938 69.5469
Q41.9375 67.2344 44.7656 62.8594
Q47.6094 58.5 49.2188 52.2188
Q50.8281 45.9531 50.8281 35.2969
Q50.8281 22.7031 48.2344 14.9688
Q45.6562 7.23438 40.5 3
Q35.3594 -1.21875 27.4844 -1.21875
Q17.1406 -1.21875 11.2344 6.20312
Q4.15625 15.1406 4.15625 35.2969
M13.1875 35.2969
Q13.1875 17.6719 17.3125 11.8281
Q21.4375 6 27.4844 6
Q33.5469 6 37.6719 11.8594
Q41.7969 17.7188 41.7969 35.2969
Q41.7969 52.9844 37.6719 58.7812
Q33.5469 64.5938 27.3906 64.5938
Q21.3438 64.5938 17.7188 59.4688
Q13.1875 52.9375 13.1875 35.2969" id="ArialMT-30"/>
       <path d="
M37.25 0
L28.4688 0
L28.4688 56
Q25.2969 52.9844 20.1406 49.9531
Q14.9844 46.9219 10.8906 45.4062
L10.8906 53.9062
Q18.2656 57.375 23.7812 62.2969
Q29.2969 67.2344 31.5938 71.875
L37.25 71.875
z
" id="ArialMT-31"/>
       <path d="
M52.8281 31.2031
L5.5625 31.2031
L5.5625 39.4062
L52.8281 39.4062
z
" id="ArialMT-2212"/>
       <path d="
M9.07812 0
L9.07812 10.0156
L19.0938 10.0156
L19.0938 0
z
" id="ArialMT-2e"/>
      </defs>
      <g style="fill:#262626;" transform="translate(50.3840625 324.889375)scale(0.12 -0.12)">
       <use xlink:href="#ArialMT-2212"/>
       <use x="58.3984375" xlink:href="#ArialMT-31"/>
       <use x="114.013671875" xlink:href="#ArialMT-2e"/>
       <use x="141.796875" xlink:href="#ArialMT-30"/>
      </g>
     </g>
    </g>
    <g id="xtick_2">
     <g id="line2d_2">
      <g>
       <use style="fill:#262626;stroke:#262626;" x="221.6390625" xlink:href="#m44d4eda7dc" y="303.3"/>
      </g>
     </g>
     <g id="text_2">
      <!-- −0.5 -->
      <defs>
       <path d="
M4.15625 18.75
L13.375 19.5312
Q14.4062 12.7969 18.1406 9.39062
Q21.875 6 27.1562 6
Q33.5 6 37.8906 10.7812
Q42.2812 15.5781 42.2812 23.4844
Q42.2812 31 38.0625 35.3438
Q33.8438 39.7031 27 39.7031
Q22.75 39.7031 19.3281 37.7656
Q15.9219 35.8438 13.9688 32.7656
L5.71875 33.8438
L12.6406 70.6094
L48.25 70.6094
L48.25 62.2031
L19.6719 62.2031
L15.8281 42.9688
Q22.2656 47.4688 29.3438 47.4688
Q38.7188 47.4688 45.1562 40.9688
Q51.6094 34.4688 51.6094 24.2656
Q51.6094 14.5469 45.9531 7.46875
Q39.0625 -1.21875 27.1562 -1.21875
Q17.3906 -1.21875 11.2031 4.25
Q5.03125 9.71875 4.15625 18.75" id="ArialMT-35"/>
      </defs>
      <g style="fill:#262626;" transform="translate(210.3684375 324.889375)scale(0.12 -0.12)">
       <use xlink:href="#ArialMT-2212"/>
       <use x="58.3984375" xlink:href="#ArialMT-30"/>
       <use x="114.013671875" xlink:href="#ArialMT-2e"/>
       <use x="141.796875" xlink:href="#ArialMT-35"/>
      </g>
     </g>
    </g>
    <g id="xtick_3">
     <g id="line2d_3">
      <g>
       <use style="fill:#262626;stroke:#262626;" x="381.6703125" xlink:href="#m44d4eda7dc" y="303.3"/>
      </g>
     </g>
     <g id="text_3">
      <!-- 0.0 -->
      <g style="fill:#262626;" transform="translate(373.8665625 324.889375)scale(0.12 -0.12)">
       <use xlink:href="#ArialMT-30"/>
       <use x="55.615234375" xlink:href="#ArialMT-2e"/>
       <use x="83.3984375" xlink:href="#ArialMT-30"/>
      </g>
     </g>
    </g>
    <g id="xtick_4">
     <g id="line2d_4">
      <g>
       <use style="fill:#262626;stroke:#262626;" x="541.7015625" xlink:href="#m44d4eda7dc" y="303.3"/>
      </g>
     </g>
     <g id="text_4">
      <!-- 0.5 -->
      <g style="fill:#262626;" transform="translate(533.8509375 324.889375)scale(0.12 -0.12)">
       <use xlink:href="#ArialMT-30"/>
       <use x="55.615234375" xlink:href="#ArialMT-2e"/>
       <use x="83.3984375" xlink:href="#ArialMT-35"/>
      </g>
     </g>
    </g>
    <g id="xtick_5">
     <g id="line2d_5">
      <g>
       <use style="fill:#262626;stroke:#262626;" x="701.7328125" xlink:href="#m44d4eda7dc" y="303.3"/>
      </g>
     </g>
     <g id="text_5">
      <!-- 1.0 -->
      <g style="fill:#262626;" transform="translate(694.333125 324.889375)scale(0.12 -0.12)">
       <use xlink:href="#ArialMT-31"/>
       <use x="55.615234375" xlink:href="#ArialMT-2e"/>
       <use x="83.3984375" xlink:href="#ArialMT-30"/>
      </g>
     </g>
    </g>
    <g id="text_6">
     <!-- Encoded value ($x$) -->
     <defs>
      <path d="
M40.4375 19
L49.0781 17.875
Q47.6562 8.9375 41.8125 3.875
Q35.9844 -1.17188 27.4844 -1.17188
Q16.8438 -1.17188 10.375 5.78125
Q3.90625 12.75 3.90625 25.7344
Q3.90625 34.125 6.6875 40.4219
Q9.46875 46.7344 15.1562 49.875
Q20.8438 53.0312 27.5469 53.0312
Q35.9844 53.0312 41.3594 48.75
Q46.7344 44.4844 48.25 36.625
L39.7031 35.2969
Q38.4844 40.5312 35.375 43.1562
Q32.2812 45.7969 27.875 45.7969
Q21.2344 45.7969 17.0781 41.0312
Q12.9375 36.2812 12.9375 25.9844
Q12.9375 15.5312 16.9375 10.7969
Q20.9531 6.0625 27.3906 6.0625
Q32.5625 6.0625 36.0312 9.23438
Q39.5 12.4062 40.4375 19" id="ArialMT-63"/>
      <path d="
M40.4375 6.39062
Q35.5469 2.25 31.0312 0.53125
Q26.5156 -1.17188 21.3438 -1.17188
Q12.7969 -1.17188 8.20312 3
Q3.60938 7.17188 3.60938 13.6719
Q3.60938 17.4844 5.34375 20.625
Q7.07812 23.7812 9.89062 25.6875
Q12.7031 27.5938 16.2188 28.5625
Q18.7969 29.25 24.0312 29.8906
Q34.6719 31.1562 39.7031 32.9062
Q39.75 34.7188 39.75 35.2031
Q39.75 40.5781 37.25 42.7812
Q33.8906 45.75 27.25 45.75
Q21.0469 45.75 18.0938 43.5781
Q15.1406 41.4062 13.7188 35.8906
L5.125 37.0625
Q6.29688 42.5781 8.98438 45.9688
Q11.6719 49.3594 16.75 51.1875
Q21.8281 53.0312 28.5156 53.0312
Q35.1562 53.0312 39.2969 51.4688
Q43.4531 49.9062 45.4062 47.5312
Q47.3594 45.1719 48.1406 41.5469
Q48.5781 39.3125 48.5781 33.4531
L48.5781 21.7344
Q48.5781 9.46875 49.1406 6.21875
Q49.7031 2.98438 51.375 0
L42.1875 0
Q40.8281 2.73438 40.4375 6.39062
M39.7031 26.0312
Q34.9062 24.0781 25.3438 22.7031
Q19.9219 21.9219 17.6719 20.9375
Q15.4375 19.9688 14.2031 18.0938
Q12.9844 16.2188 12.9844 13.9219
Q12.9844 10.4062 15.6406 8.0625
Q18.3125 5.71875 23.4375 5.71875
Q28.5156 5.71875 32.4688 7.9375
Q36.4219 10.1562 38.2812 14.0156
Q39.7031 17 39.7031 22.7969
z
" id="ArialMT-61"/>
      <path d="
M12.3594 -21.0469
L6.0625 -21.0469
Q20.6562 2.39062 20.6562 25.875
Q20.6562 35.0625 18.5625 44.0938
Q16.8906 51.4219 13.9219 58.1562
Q12.0156 62.5469 6.0625 72.7969
L12.3594 72.7969
Q21.5312 60.5469 25.9219 48.1875
Q29.6875 37.5469 29.6875 25.9219
Q29.6875 12.75 24.625 0.4375
Q19.5781 -11.8594 12.3594 -21.0469" id="ArialMT-29"/>
      <path d="
M42.0938 16.7031
L51.1719 15.5781
Q49.0312 7.625 43.2188 3.21875
Q37.4062 -1.17188 28.375 -1.17188
Q17 -1.17188 10.3281 5.82812
Q3.65625 12.8438 3.65625 25.4844
Q3.65625 38.5781 10.3906 45.7969
Q17.1406 53.0312 27.875 53.0312
Q38.2812 53.0312 44.875 45.9531
Q51.4688 38.875 51.4688 26.0312
Q51.4688 25.25 51.4219 23.6875
L12.75 23.6875
Q13.2344 15.1406 17.5781 10.5938
Q21.9219 6.0625 28.4219 6.0625
Q33.25 6.0625 36.6719 8.59375
Q40.0938 11.1406 42.0938 16.7031
M13.2344 30.9062
L42.1875 30.9062
Q41.6094 37.4531 38.875 40.7188
Q34.6719 45.7969 27.9844 45.7969
Q21.9219 45.7969 17.7969 41.75
Q13.6719 37.7031 13.2344 30.9062" id="ArialMT-65"/>
      <path d="
M40.2344 0
L40.2344 6.54688
Q35.2969 -1.17188 25.7344 -1.17188
Q19.5312 -1.17188 14.3281 2.25
Q9.125 5.67188 6.26562 11.7969
Q3.42188 17.9219 3.42188 25.875
Q3.42188 33.6406 6 39.9688
Q8.59375 46.2969 13.7656 49.6562
Q18.9531 53.0312 25.3438 53.0312
Q30.0312 53.0312 33.6875 51.0469
Q37.3594 49.0781 39.6562 45.9062
L39.6562 71.5781
L48.3906 71.5781
L48.3906 0
z

M12.4531 25.875
Q12.4531 15.9219 16.6406 10.9844
Q20.8438 6.0625 26.5625 6.0625
Q32.3281 6.0625 36.3438 10.7656
Q40.375 15.4844 40.375 25.1406
Q40.375 35.7969 36.2656 40.7656
Q32.1719 45.75 26.1719 45.75
Q20.3125 45.75 16.375 40.9688
Q12.4531 36.1875 12.4531 25.875" id="ArialMT-64"/>
      <path d="
M40.5781 0
L40.5781 7.625
Q34.5156 -1.17188 24.125 -1.17188
Q19.5312 -1.17188 15.5469 0.578125
Q11.5781 2.34375 9.64062 5
Q7.71875 7.67188 6.9375 11.5312
Q6.39062 14.1094 6.39062 19.7344
L6.39062 51.8594
L15.1875 51.8594
L15.1875 23.0938
Q15.1875 16.2188 15.7188 13.8125
Q16.5469 10.3594 19.2344 8.375
Q21.9219 6.39062 25.875 6.39062
Q29.8281 6.39062 33.2969 8.42188
Q36.7656 10.4531 38.2031 13.9375
Q39.6562 17.4375 39.6562 24.0781
L39.6562 51.8594
L48.4375 51.8594
L48.4375 0
z
" id="ArialMT-75"/>
      <path d="
M21 0
L1.26562 51.8594
L10.5469 51.8594
L21.6875 20.7969
Q23.4844 15.7656 25 10.3594
Q26.1719 14.4531 28.2656 20.2188
L39.7969 51.8594
L48.8281 51.8594
L29.2031 0
z
" id="ArialMT-76"/>
      <path d="
M7.90625 0
L7.90625 71.5781
L59.6719 71.5781
L59.6719 63.1406
L17.3906 63.1406
L17.3906 41.2188
L56.9844 41.2188
L56.9844 32.8125
L17.3906 32.8125
L17.3906 8.45312
L61.3281 8.45312
L61.3281 0
z
" id="ArialMT-45"/>
      <path d="
M6.39062 0
L6.39062 71.5781
L15.1875 71.5781
L15.1875 0
z
" id="ArialMT-6c"/>
      <path d="
M3.32812 25.9219
Q3.32812 40.3281 11.3281 47.2656
Q18.0156 53.0312 27.6406 53.0312
Q38.3281 53.0312 45.1094 46.0156
Q51.9062 39.0156 51.9062 26.6562
Q51.9062 16.6562 48.9062 10.9062
Q45.9062 5.17188 40.1562 2
Q34.4219 -1.17188 27.6406 -1.17188
Q16.75 -1.17188 10.0312 5.8125
Q3.32812 12.7969 3.32812 25.9219
M12.3594 25.9219
Q12.3594 15.9688 16.7031 11.0156
Q21.0469 6.0625 27.6406 6.0625
Q34.1875 6.0625 38.5312 11.0312
Q42.875 16.0156 42.875 26.2188
Q42.875 35.8438 38.5 40.7969
Q34.125 45.75 27.6406 45.75
Q21.0469 45.75 16.7031 40.8125
Q12.3594 35.8906 12.3594 25.9219" id="ArialMT-6f"/>
      <path d="
M6.59375 0
L6.59375 51.8594
L14.5 51.8594
L14.5 44.4844
Q20.2188 53.0312 31 53.0312
Q35.6875 53.0312 39.625 51.3438
Q43.5625 49.6562 45.5156 46.9219
Q47.4688 44.1875 48.25 40.4375
Q48.7344 37.9844 48.7344 31.8906
L48.7344 0
L39.9375 0
L39.9375 31.5469
Q39.9375 36.9219 38.9062 39.5781
Q37.8906 42.2344 35.2812 43.8125
Q32.6719 45.4062 29.1562 45.4062
Q23.5312 45.4062 19.4531 41.8438
Q15.375 38.2812 15.375 28.3281
L15.375 0
z
" id="ArialMT-6e"/>
      <path d="
M23.3906 -21.0469
Q16.1094 -11.8594 11.0781 0.4375
Q6.0625 12.75 6.0625 25.9219
Q6.0625 37.5469 9.8125 48.1875
Q14.2031 60.5469 23.3906 72.7969
L29.6875 72.7969
Q23.7812 62.6406 21.875 58.2969
Q18.8906 51.5625 17.1875 44.2344
Q15.0938 35.1094 15.0938 25.875
Q15.0938 2.39062 29.6875 -21.0469
z
" id="ArialMT-28"/>
      <path d="
M7.8125 2.875
Q9.57812 1.51562 12.7969 1.51562
Q15.9219 1.51562 18.3125 4.51562
Q20.7031 7.51562 21.5781 11.0781
L26.125 28.8125
Q27.2031 33.6406 27.2031 35.4062
Q27.2031 37.8906 25.8125 39.75
Q24.4219 41.6094 21.9219 41.6094
Q18.75 41.6094 15.9688 39.625
Q13.1875 37.6406 11.2812 34.5938
Q9.375 31.5469 8.59375 28.4219
Q8.40625 27.7812 7.8125 27.7812
L6.59375 27.7812
Q5.8125 27.7812 5.8125 28.7188
L5.8125 29
Q6.78125 32.7188 9.125 36.25
Q11.4688 39.7969 14.8594 41.9844
Q18.2656 44.1875 22.125 44.1875
Q25.7812 44.1875 28.7344 42.2344
Q31.6875 40.2812 32.9062 36.9219
Q34.625 39.9844 37.2812 42.0781
Q39.9375 44.1875 43.1094 44.1875
Q45.2656 44.1875 47.5 43.4219
Q49.75 42.6719 51.1719 41.1094
Q52.5938 39.5469 52.5938 37.2031
Q52.5938 34.6719 50.9531 32.8281
Q49.3125 31 46.7812 31
Q45.1719 31 44.0938 32.0312
Q43.0156 33.0625 43.0156 34.625
Q43.0156 36.7188 44.4531 38.2969
Q45.9062 39.8906 47.9062 40.1875
Q46.0938 41.6094 42.9219 41.6094
Q39.7031 41.6094 37.3281 38.625
Q34.9688 35.6406 33.9844 31.9844
L29.5938 14.3125
Q28.5156 10.2969 28.5156 7.71875
Q28.5156 5.17188 29.9531 3.34375
Q31.3906 1.51562 33.7969 1.51562
Q38.4844 1.51562 42.1562 5.64062
Q45.8438 9.76562 47.0156 14.7031
Q47.2188 15.2812 47.7969 15.2812
L49.0312 15.2812
Q49.4219 15.2812 49.6562 15.0156
Q49.9062 14.75 49.9062 14.4062
Q49.9062 14.3125 49.8125 14.1094
Q48.3906 8.15625 43.8438 3.51562
Q39.3125 -1.125 33.5938 -1.125
Q29.9375 -1.125 26.9844 0.84375
Q24.0312 2.82812 22.7969 6.20312
Q21.2344 3.26562 18.4688 1.0625
Q15.7188 -1.125 12.5938 -1.125
Q10.4531 -1.125 8.17188 -0.359375
Q5.90625 0.390625 4.48438 1.95312
Q3.07812 3.51562 3.07812 5.90625
Q3.07812 8.25 4.70312 10.1719
Q6.34375 12.1094 8.79688 12.1094
Q10.4531 12.1094 11.5781 11.1094
Q12.7031 10.1094 12.7031 8.5
Q12.7031 6.39062 11.2969 4.82812
Q9.90625 3.26562 7.8125 2.875" id="Cmmi10-78"/>
      <path id="ArialMT-20"/>
     </defs>
     <g style="fill:#262626;" transform="translate(323.0623125 342.786375)scale(0.144 -0.144)">
      <use transform="translate(0.0 0.203125)" xlink:href="#ArialMT-45"/>
      <use transform="translate(66.69921875 0.203125)" xlink:href="#ArialMT-6e"/>
      <use transform="translate(122.314453125 0.203125)" xlink:href="#ArialMT-63"/>
      <use transform="translate(172.314453125 0.203125)" xlink:href="#ArialMT-6f"/>
      <use transform="translate(227.9296875 0.203125)" xlink:href="#ArialMT-64"/>
      <use transform="translate(283.544921875 0.203125)" xlink:href="#ArialMT-65"/>
      <use transform="translate(339.16015625 0.203125)" xlink:href="#ArialMT-64"/>
      <use transform="translate(394.775390625 0.203125)" xlink:href="#ArialMT-20"/>
      <use transform="translate(422.55859375 0.203125)" xlink:href="#ArialMT-76"/>
      <use transform="translate(472.55859375 0.203125)" xlink:href="#ArialMT-61"/>
      <use transform="translate(528.173828125 0.203125)" xlink:href="#ArialMT-6c"/>
      <use transform="translate(550.390625 0.203125)" xlink:href="#ArialMT-75"/>
      <use transform="translate(606.005859375 0.203125)" xlink:href="#ArialMT-65"/>
      <use transform="translate(661.62109375 0.203125)" xlink:href="#ArialMT-20"/>
      <use transform="translate(689.404296875 0.203125)" xlink:href="#ArialMT-28"/>
      <use transform="translate(722.705078125 0.203125)" xlink:href="#Cmmi10-78"/>
      <use transform="translate(779.78515625 0.203125)" xlink:href="#ArialMT-29"/>
     </g>
    </g>
   </g>
   <g id="matplotlib.axis_2">
    <g id="ytick_1">
     <g id="line2d_6">
      <defs>
       <path d="
M0 0
L-6 0" id="m0dfa6ce036" style="stroke:#262626;"/>
      </defs>
      <g>
       <use style="fill:#262626;stroke:#262626;" x="61.6078125" xlink:href="#m0dfa6ce036" y="303.3"/>
      </g>
     </g>
     <g id="text_7">
      <!-- 0 -->
      <g style="fill:#262626;" transform="translate(43.0071875 306.4021875)scale(0.12 -0.12)">
       <use xlink:href="#ArialMT-30"/>
      </g>
     </g>
    </g>
    <g id="ytick_2">
     <g id="line2d_7">
      <g>
       <use style="fill:#262626;stroke:#262626;" x="61.6078125" xlink:href="#m0dfa6ce036" y="262.285714286"/>
      </g>
     </g>
     <g id="text_8">
      <!-- 50 -->
      <g style="fill:#262626;" transform="translate(36.3340625 265.387901786)scale(0.12 -0.12)">
       <use xlink:href="#ArialMT-35"/>
       <use x="55.615234375" xlink:href="#ArialMT-30"/>
      </g>
     </g>
    </g>
    <g id="ytick_3">
     <g id="line2d_8">
      <g>
       <use style="fill:#262626;stroke:#262626;" x="61.6078125" xlink:href="#m0dfa6ce036" y="221.271428571"/>
      </g>
     </g>
     <g id="text_9">
      <!-- 100 -->
      <g style="fill:#262626;" transform="translate(30.4690625 224.373616071)scale(0.12 -0.12)">
       <use xlink:href="#ArialMT-31"/>
       <use x="55.615234375" xlink:href="#ArialMT-30"/>
       <use x="111.23046875" xlink:href="#ArialMT-30"/>
      </g>
     </g>
    </g>
    <g id="ytick_4">
     <g id="line2d_9">
      <g>
       <use style="fill:#262626;stroke:#262626;" x="61.6078125" xlink:href="#m0dfa6ce036" y="180.257142857"/>
      </g>
     </g>
     <g id="text_10">
      <!-- 150 -->
      <g style="fill:#262626;" transform="translate(30.4690625 183.359330357)scale(0.12 -0.12)">
       <use xlink:href="#ArialMT-31"/>
       <use x="55.615234375" xlink:href="#ArialMT-35"/>
       <use x="111.23046875" xlink:href="#ArialMT-30"/>
      </g>
     </g>
    </g>
    <g id="ytick_5">
     <g id="line2d_10">
      <g>
       <use style="fill:#262626;stroke:#262626;" x="61.6078125" xlink:href="#m0dfa6ce036" y="139.242857143"/>
      </g>
     </g>
     <g id="text_11">
      <!-- 200 -->
      <defs>
       <path d="
M50.3438 8.45312
L50.3438 0
L3.03125 0
Q2.9375 3.17188 4.04688 6.10938
Q5.85938 10.9375 9.82812 15.625
Q13.8125 20.3125 21.3438 26.4688
Q33.0156 36.0312 37.1094 41.625
Q41.2188 47.2188 41.2188 52.2031
Q41.2188 57.4219 37.4688 61
Q33.7344 64.5938 27.7344 64.5938
Q21.3906 64.5938 17.5781 60.7812
Q13.7656 56.9844 13.7188 50.25
L4.6875 51.1719
Q5.60938 61.2812 11.6562 66.5781
Q17.7188 71.875 27.9375 71.875
Q38.2344 71.875 44.2344 66.1562
Q50.25 60.4531 50.25 52
Q50.25 47.7031 48.4844 43.5469
Q46.7344 39.4062 42.6562 34.8125
Q38.5781 30.2188 29.1094 22.2188
Q21.1875 15.5781 18.9375 13.2031
Q16.7031 10.8438 15.2344 8.45312
z
" id="ArialMT-32"/>
      </defs>
      <g style="fill:#262626;" transform="translate(29.5146875 142.345044643)scale(0.12 -0.12)">
       <use xlink:href="#ArialMT-32"/>
       <use x="55.615234375" xlink:href="#ArialMT-30"/>
       <use x="111.23046875" xlink:href="#ArialMT-30"/>
      </g>
     </g>
    </g>
    <g id="ytick_6">
     <g id="line2d_11">
      <g>
       <use style="fill:#262626;stroke:#262626;" x="61.6078125" xlink:href="#m0dfa6ce036" y="98.2285714286"/>
      </g>
     </g>
     <g id="text_12">
      <!-- 250 -->
      <g style="fill:#262626;" transform="translate(29.5146875 101.330758929)scale(0.12 -0.12)">
       <use xlink:href="#ArialMT-32"/>
       <use x="55.615234375" xlink:href="#ArialMT-35"/>
       <use x="111.23046875" xlink:href="#ArialMT-30"/>
      </g>
     </g>
    </g>
    <g id="ytick_7">
     <g id="line2d_12">
      <g>
       <use style="fill:#262626;stroke:#262626;" x="61.6078125" xlink:href="#m0dfa6ce036" y="57.2142857143"/>
      </g>
     </g>
     <g id="text_13">
      <!-- 300 -->
      <defs>
       <path d="
M4.20312 18.8906
L12.9844 20.0625
Q14.5 12.5938 18.1406 9.29688
Q21.7812 6 27 6
Q33.2031 6 37.4688 10.2969
Q41.75 14.5938 41.75 20.9531
Q41.75 27 37.7969 30.9219
Q33.8438 34.8594 27.7344 34.8594
Q25.25 34.8594 21.5312 33.8906
L22.5156 41.6094
Q23.3906 41.5 23.9219 41.5
Q29.5469 41.5 34.0312 44.4219
Q38.5312 47.3594 38.5312 53.4688
Q38.5312 58.2969 35.25 61.4688
Q31.9844 64.6562 26.8125 64.6562
Q21.6875 64.6562 18.2656 61.4219
Q14.8438 58.2031 13.875 51.7656
L5.07812 53.3281
Q6.6875 62.1562 12.3906 67.0156
Q18.1094 71.875 26.6094 71.875
Q32.4688 71.875 37.3906 69.3594
Q42.3281 66.8438 44.9375 62.5
Q47.5625 58.1562 47.5625 53.2656
Q47.5625 48.6406 45.0625 44.8281
Q42.5781 41.0156 37.7031 38.7656
Q44.0469 37.3125 47.5625 32.6875
Q51.0781 28.0781 51.0781 21.1406
Q51.0781 11.7656 44.2344 5.25
Q37.4062 -1.26562 26.9531 -1.26562
Q17.5312 -1.26562 11.2969 4.34375
Q5.07812 9.96875 4.20312 18.8906" id="ArialMT-33"/>
      </defs>
      <g style="fill:#262626;" transform="translate(29.6665625 60.3164732143)scale(0.12 -0.12)">
       <use xlink:href="#ArialMT-33"/>
       <use x="55.615234375" xlink:href="#ArialMT-30"/>
       <use x="111.23046875" xlink:href="#ArialMT-30"/>
      </g>
     </g>
    </g>
    <g id="ytick_8">
     <g id="line2d_13">
      <g>
       <use style="fill:#262626;stroke:#262626;" x="61.6078125" xlink:href="#m0dfa6ce036" y="16.2"/>
      </g>
     </g>
     <g id="text_14">
      <!-- 350 -->
      <g style="fill:#262626;" transform="translate(29.6665625 19.3021875)scale(0.12 -0.12)">
       <use xlink:href="#ArialMT-33"/>
       <use x="55.615234375" xlink:href="#ArialMT-35"/>
       <use x="111.23046875" xlink:href="#ArialMT-30"/>
      </g>
     </g>
    </g>
    <g id="text_15">
     <!-- Activity of neuron (Hz) -->
     <defs>
      <path d="
M8.01562 0
L8.01562 71.5781
L17.4844 71.5781
L17.4844 42.1875
L54.6875 42.1875
L54.6875 71.5781
L64.1562 71.5781
L64.1562 0
L54.6875 0
L54.6875 33.7344
L17.4844 33.7344
L17.4844 0
z
" id="ArialMT-48"/>
      <path d="
M6.20312 -19.9688
L5.21875 -11.7188
Q8.10938 -12.5 10.25 -12.5
Q13.1875 -12.5 14.9375 -11.5156
Q16.7031 -10.5469 17.8281 -8.79688
Q18.6562 -7.46875 20.5156 -2.25
Q20.75 -1.51562 21.2969 -0.09375
L1.60938 51.8594
L11.0781 51.8594
L21.875 21.8281
Q23.9688 16.1094 25.6406 9.8125
Q27.1562 15.875 29.25 21.625
L40.3281 51.8594
L49.125 51.8594
L29.3906 -0.875
Q26.2188 -9.42188 24.4688 -12.6406
Q22.125 -17 19.0938 -19.0156
Q16.0625 -21.0469 11.8594 -21.0469
Q9.32812 -21.0469 6.20312 -19.9688" id="ArialMT-79"/>
      <path d="
M-0.140625 0
L27.3438 71.5781
L37.5469 71.5781
L66.8438 0
L56.0625 0
L47.7031 21.6875
L17.7812 21.6875
L9.90625 0
z

M20.5156 29.3906
L44.7812 29.3906
L37.3125 49.2188
Q33.8906 58.25 32.2344 64.0625
Q30.8594 57.1719 28.375 50.3906
z
" id="ArialMT-41"/>
      <path d="
M6.64062 61.4688
L6.64062 71.5781
L15.4375 71.5781
L15.4375 61.4688
z

M6.64062 0
L6.64062 51.8594
L15.4375 51.8594
L15.4375 0
z
" id="ArialMT-69"/>
      <path d="
M6.5 0
L6.5 51.8594
L14.4062 51.8594
L14.4062 44
Q17.4375 49.5156 20 51.2656
Q22.5625 53.0312 25.6406 53.0312
Q30.0781 53.0312 34.6719 50.2031
L31.6406 42.0469
Q28.4219 43.9531 25.2031 43.9531
Q22.3125 43.9531 20.0156 42.2188
Q17.7188 40.4844 16.75 37.4062
Q15.2812 32.7188 15.2812 27.1562
L15.2812 0
z
" id="ArialMT-72"/>
      <path d="
M25.7812 7.85938
L27.0469 0.09375
Q23.3438 -0.6875 20.4062 -0.6875
Q15.625 -0.6875 12.9844 0.828125
Q10.3594 2.34375 9.28125 4.8125
Q8.20312 7.28125 8.20312 15.1875
L8.20312 45.0156
L1.76562 45.0156
L1.76562 51.8594
L8.20312 51.8594
L8.20312 64.7031
L16.9375 69.9688
L16.9375 51.8594
L25.7812 51.8594
L25.7812 45.0156
L16.9375 45.0156
L16.9375 14.7031
Q16.9375 10.9375 17.4062 9.85938
Q17.875 8.79688 18.9219 8.15625
Q19.9688 7.51562 21.9219 7.51562
Q23.3906 7.51562 25.7812 7.85938" id="ArialMT-74"/>
      <path d="
M1.95312 0
L1.95312 7.125
L34.9688 45.0156
Q29.3438 44.7344 25.0469 44.7344
L3.90625 44.7344
L3.90625 51.8594
L46.2969 51.8594
L46.2969 46.0469
L18.2188 13.1406
L12.7969 7.125
Q18.7031 7.5625 23.875 7.5625
L47.8594 7.5625
L47.8594 0
z
" id="ArialMT-7a"/>
      <path d="
M8.6875 0
L8.6875 45.0156
L0.921875 45.0156
L0.921875 51.8594
L8.6875 51.8594
L8.6875 57.375
Q8.6875 62.5938 9.625 65.1406
Q10.8906 68.5625 14.0781 70.6719
Q17.2812 72.7969 23.0469 72.7969
Q26.7656 72.7969 31.25 71.9219
L29.9375 64.2656
Q27.2031 64.75 24.75 64.75
Q20.75 64.75 19.0938 63.0312
Q17.4375 61.3281 17.4375 56.6406
L17.4375 51.8594
L27.5469 51.8594
L27.5469 45.0156
L17.4375 45.0156
L17.4375 0
z
" id="ArialMT-66"/>
     </defs>
     <g style="fill:#262626;" transform="translate(21.4839375 230.319)rotate(-90.0)scale(0.144 -0.144)">
      <use xlink:href="#ArialMT-41"/>
      <use x="66.69921875" xlink:href="#ArialMT-63"/>
      <use x="116.69921875" xlink:href="#ArialMT-74"/>
      <use x="144.482421875" xlink:href="#ArialMT-69"/>
      <use x="166.69921875" xlink:href="#ArialMT-76"/>
      <use x="216.69921875" xlink:href="#ArialMT-69"/>
      <use x="238.916015625" xlink:href="#ArialMT-74"/>
      <use x="266.69921875" xlink:href="#ArialMT-79"/>
      <use x="316.69921875" xlink:href="#ArialMT-20"/>
      <use x="344.482421875" xlink:href="#ArialMT-6f"/>
      <use x="400.09765625" xlink:href="#ArialMT-66"/>
      <use x="427.880859375" xlink:href="#ArialMT-20"/>
      <use x="455.6640625" xlink:href="#ArialMT-6e"/>
      <use x="511.279296875" xlink:href="#ArialMT-65"/>
      <use x="566.89453125" xlink:href="#ArialMT-75"/>
      <use x="622.509765625" xlink:href="#ArialMT-72"/>
      <use x="655.810546875" xlink:href="#ArialMT-6f"/>
      <use x="711.42578125" xlink:href="#ArialMT-6e"/>
      <use x="767.041015625" xlink:href="#ArialMT-20"/>
      <use x="794.82421875" xlink:href="#ArialMT-28"/>
      <use x="828.125" xlink:href="#ArialMT-48"/>
      <use x="900.341796875" xlink:href="#ArialMT-7a"/>
      <use x="950.341796875" xlink:href="#ArialMT-29"/>
     </g>
    </g>
   </g>
   <g id="line2d_14">
    <path clip-path="url(#pfa9d19c189)" d="
M61.6078 17.1864
L74.6716 22.8084
L87.7354 28.9643
L100.799 35.7342
L113.863 43.2147
L126.927 51.524
L139.99 60.8081
L153.054 71.2495
L166.118 83.0791
L179.182 96.5944
L192.246 112.185
L205.309 130.37
L218.373 151.863
L231.437 177.676
L244.501 209.319
L257.564 249.427
L270.628 303.3
L283.692 303.3
L296.756 303.3
L309.82 303.3
L322.883 303.3
L335.947 303.3
L349.011 303.3
L362.075 303.3
L375.138 303.3
L388.202 303.3
L401.266 303.3
L414.33 303.3
L427.394 303.3
L440.457 303.3
L453.521 303.3
L466.585 303.3
L479.649 303.3
L492.712 303.3
L505.776 303.3
L518.84 303.3
L531.904 303.3
L544.968 303.3
L558.031 303.3
L571.095 303.3
L584.159 303.3
L597.223 303.3
L610.286 303.3
L623.35 303.3
L636.414 303.3
L649.478 303.3
L662.541 303.3
L675.605 303.3
L688.669 303.3
L701.733 303.3" style="fill:none;stroke:#4c72b0;stroke-linecap:round;stroke-width:2.0;"/>
   </g>
   <g id="line2d_15">
    <path clip-path="url(#pfa9d19c189)" d="
M61.6078 303.3
L74.6716 303.3
L87.7354 303.3
L100.799 303.3
L113.863 303.3
L126.927 303.3
L139.99 303.3
L153.054 303.3
L166.118 303.3
L179.182 303.3
L192.246 303.3
L205.309 303.3
L218.373 303.3
L231.437 303.3
L244.501 303.3
L257.564 303.3
L270.628 303.3
L283.692 303.3
L296.756 303.3
L309.82 303.3
L322.883 303.3
L335.947 303.3
L349.011 303.3
L362.075 303.3
L375.138 303.3
L388.202 303.3
L401.266 303.3
L414.33 303.3
L427.394 303.3
L440.457 303.3
L453.521 303.3
L466.585 303.3
L479.649 303.3
L492.712 303.3
L505.776 303.3
L518.84 283.366
L531.904 257.256
L544.968 236.296
L558.031 217.921
L571.095 201.518
L584.159 186.738
L597.223 173.333
L610.286 161.113
L623.35 149.922
L636.414 139.633
L649.478 130.141
L662.541 121.355
L675.605 113.199
L688.669 105.607
L701.733 98.5228" style="fill:none;stroke:#55a868;stroke-linecap:round;stroke-width:2.0;"/>
   </g>
   <g id="line2d_16">
    <path clip-path="url(#pfa9d19c189)" d="
M61.6078 303.3
L74.6716 303.3
L87.7354 303.3
L100.799 283.505
L113.863 276.026
L126.927 269.477
L139.99 263.41
L153.054 257.673
L166.118 252.191
L179.182 246.924
L192.246 241.844
L205.309 236.933
L218.373 232.177
L231.437 227.564
L244.501 223.086
L257.564 218.734
L270.628 214.502
L283.692 210.385
L296.756 206.376
L309.82 202.47
L322.883 198.664
L335.947 194.952
L349.011 191.332
L362.075 187.8
L375.138 184.352
L388.202 180.985
L401.266 177.696
L414.33 174.482
L427.394 171.341
L440.457 168.271
L453.521 165.268
L466.585 162.33
L479.649 159.456
L492.712 156.643
L505.776 153.889
L518.84 151.193
L531.904 148.552
L544.968 145.965
L558.031 143.43
L571.095 140.945
L584.159 138.51
L597.223 136.123
L610.286 133.781
L623.35 131.485
L636.414 129.232
L649.478 127.021
L662.541 124.852
L675.605 122.722
L688.669 120.632
L701.733 118.579" style="fill:none;stroke:#c44e52;stroke-linecap:round;stroke-width:2.0;"/>
   </g>
   <g id="line2d_17">
    <path clip-path="url(#pfa9d19c189)" d="
M61.6078 303.3
L74.6716 303.3
L87.7354 303.3
L100.799 303.3
L113.863 303.3
L126.927 303.3
L139.99 303.3
L153.054 303.3
L166.118 303.3
L179.182 303.3
L192.246 303.3
L205.309 303.3
L218.373 303.3
L231.437 303.3
L244.501 303.3
L257.564 303.3
L270.628 303.3
L283.692 303.3
L296.756 303.3
L309.82 303.3
L322.883 281.337
L335.947 268.823
L349.011 258.012
L362.075 248.095
L375.138 238.833
L388.202 230.112
L401.266 221.86
L414.33 214.029
L427.394 206.58
L440.457 199.48
L453.521 192.704
L466.585 186.228
L479.649 180.03
L492.712 174.093
L505.776 168.4
L518.84 162.935
L531.904 157.685
L544.968 152.636
L558.031 147.778
L571.095 143.1
L584.159 138.591
L597.223 134.243
L610.286 130.046
L623.35 125.994
L636.414 122.079
L649.478 118.293
L662.541 114.631
L675.605 111.087
L688.669 107.654
L701.733 104.328" style="fill:none;stroke:#8172b2;stroke-linecap:round;stroke-width:2.0;"/>
   </g>
   <g id="line2d_18">
    <path clip-path="url(#pfa9d19c189)" d="
M61.6078 77.7025
L74.6716 90.871
L87.7354 106.067
L100.799 123.798
L113.863 144.765
L126.927 169.953
L139.99 200.828
L153.054 239.827
L166.118 303.3
L179.182 303.3
L192.246 303.3
L205.309 303.3
L218.373 303.3
L231.437 303.3
L244.501 303.3
L257.564 303.3
L270.628 303.3
L283.692 303.3
L296.756 303.3
L309.82 303.3
L322.883 303.3
L335.947 303.3
L349.011 303.3
L362.075 303.3
L375.138 303.3
L388.202 303.3
L401.266 303.3
L414.33 303.3
L427.394 303.3
L440.457 303.3
L453.521 303.3
L466.585 303.3
L479.649 303.3
L492.712 303.3
L505.776 303.3
L518.84 303.3
L531.904 303.3
L544.968 303.3
L558.031 303.3
L571.095 303.3
L584.159 303.3
L597.223 303.3
L610.286 303.3
L623.35 303.3
L636.414 303.3
L649.478 303.3
L662.541 303.3
L675.605 303.3
L688.669 303.3
L701.733 303.3" style="fill:none;stroke:#ccb974;stroke-linecap:round;stroke-width:2.0;"/>
   </g>
   <g id="line2d_19">
    <path clip-path="url(#pfa9d19c189)" d="
M61.6078 118.483
L74.6716 121.283
L87.7354 124.153
L100.799 127.096
L113.863 130.115
L126.927 133.214
L139.99 136.395
L153.054 139.662
L166.118 143.019
L179.182 146.468
L192.246 150.015
L205.309 153.663
L218.373 157.417
L231.437 161.282
L244.501 165.262
L257.564 169.364
L270.628 173.592
L283.692 177.954
L296.756 182.456
L309.82 187.104
L322.883 191.907
L335.947 196.874
L349.011 202.013
L362.075 207.334
L375.138 212.85
L388.202 218.572
L401.266 224.516
L414.33 230.699
L427.394 237.143
L440.457 243.874
L453.521 250.931
L466.585 258.372
L479.649 266.304
L492.712 274.97
L505.776 285.282
L518.84 303.3
L531.904 303.3
L544.968 303.3
L558.031 303.3
L571.095 303.3
L584.159 303.3
L597.223 303.3
L610.286 303.3
L623.35 303.3
L636.414 303.3
L649.478 303.3
L662.541 303.3
L675.605 303.3
L688.669 303.3
L701.733 303.3" style="fill:none;stroke:#64b5cd;stroke-linecap:round;stroke-width:2.0;"/>
   </g>
   <g id="line2d_20">
    <path clip-path="url(#pfa9d19c189)" d="
M61.6078 92.569
L74.6716 95.8916
L87.7354 99.327
L100.799 102.881
L113.863 106.56
L126.927 110.371
L139.99 114.32
L153.054 118.416
L166.118 122.667
L179.182 127.083
L192.246 131.672
L205.309 136.445
L218.373 141.415
L231.437 146.592
L244.501 151.992
L257.564 157.628
L270.628 163.517
L283.692 169.677
L296.756 176.128
L309.82 182.891
L322.883 189.991
L335.947 197.456
L349.011 205.316
L362.075 213.609
L375.138 222.379
L388.202 231.679
L401.266 241.583
L414.33 252.2
L427.394 263.739
L440.457 276.788
L453.521 303.3
L466.585 303.3
L479.649 303.3
L492.712 303.3
L505.776 303.3
L518.84 303.3
L531.904 303.3
L544.968 303.3
L558.031 303.3
L571.095 303.3
L584.159 303.3
L597.223 303.3
L610.286 303.3
L623.35 303.3
L636.414 303.3
L649.478 303.3
L662.541 303.3
L675.605 303.3
L688.669 303.3
L701.733 303.3" style="fill:none;stroke:#4c72b0;stroke-linecap:round;stroke-width:2.0;"/>
   </g>
   <g id="line2d_21">
    <path clip-path="url(#pfa9d19c189)" d="
M61.6078 303.3
L74.6716 303.3
L87.7354 303.3
L100.799 303.3
L113.863 303.3
L126.927 303.3
L139.99 303.3
L153.054 303.3
L166.118 303.3
L179.182 303.3
L192.246 303.3
L205.309 303.3
L218.373 303.3
L231.437 303.3
L244.501 303.3
L257.564 303.3
L270.628 303.3
L283.692 303.3
L296.756 303.3
L309.82 303.3
L322.883 303.3
L335.947 303.3
L349.011 303.3
L362.075 303.3
L375.138 303.3
L388.202 303.3
L401.266 303.3
L414.33 303.3
L427.394 303.3
L440.457 303.3
L453.521 303.3
L466.585 303.3
L479.649 286.399
L492.712 267.051
L505.776 251.598
L518.84 237.76
L531.904 225.095
L544.968 213.395
L558.031 202.528
L571.095 192.397
L584.159 182.921
L597.223 174.037
L610.286 165.687
L623.35 157.824
L636.414 150.405
L649.478 143.393
L662.541 136.755
L675.605 130.461
L688.669 124.486
L701.733 118.805" style="fill:none;stroke:#55a868;stroke-linecap:round;stroke-width:2.0;"/>
   </g>
   <g id="line2d_22">
    <path clip-path="url(#pfa9d19c189)" d="
M61.6078 303.3
L74.6716 303.3
L87.7354 303.3
L100.799 303.3
L113.863 303.3
L126.927 303.3
L139.99 303.3
L153.054 303.3
L166.118 303.3
L179.182 303.3
L192.246 303.3
L205.309 303.3
L218.373 303.3
L231.437 303.3
L244.501 303.3
L257.564 303.3
L270.628 303.3
L283.692 303.3
L296.756 303.3
L309.82 303.3
L322.883 303.3
L335.947 303.3
L349.011 303.3
L362.075 303.3
L375.138 303.3
L388.202 303.3
L401.266 303.3
L414.33 290.009
L427.394 274.16
L440.457 262.169
L453.521 251.393
L466.585 241.415
L479.649 232.07
L492.712 223.263
L505.776 214.934
L518.84 207.035
L531.904 199.529
L544.968 192.382
L558.031 185.569
L571.095 179.064
L584.159 172.846
L597.223 166.896
L610.286 161.196
L623.35 155.73
L636.414 150.485
L649.478 145.446
L662.541 140.602
L675.605 135.941
L688.669 131.454
L701.733 127.129" style="fill:none;stroke:#c44e52;stroke-linecap:round;stroke-width:2.0;"/>
   </g>
   <g id="line2d_23">
    <path clip-path="url(#pfa9d19c189)" d="
M61.6078 57.3827
L74.6716 60.3729
L87.7354 63.474
L100.799 66.6924
L113.863 70.0349
L126.927 73.5088
L139.99 77.122
L153.054 80.8831
L166.118 84.8013
L179.182 88.8869
L192.246 93.1506
L205.309 97.6046
L218.373 102.262
L231.437 107.137
L244.501 112.245
L257.564 117.603
L270.628 123.231
L283.692 129.149
L296.756 135.381
L309.82 141.953
L322.883 148.893
L335.947 156.234
L349.011 164.012
L362.075 172.269
L375.138 181.052
L388.202 190.415
L401.266 200.422
L414.33 211.148
L427.394 222.688
L440.457 235.167
L453.521 248.77
L466.585 263.866
L479.649 281.881
L492.712 303.3
L505.776 303.3
L518.84 303.3
L531.904 303.3
L544.968 303.3
L558.031 303.3
L571.095 303.3
L584.159 303.3
L597.223 303.3
L610.286 303.3
L623.35 303.3
L636.414 303.3
L649.478 303.3
L662.541 303.3
L675.605 303.3
L688.669 303.3
L701.733 303.3" style="fill:none;stroke:#8172b2;stroke-linecap:round;stroke-width:2.0;"/>
   </g>
   <g id="line2d_24">
    <path clip-path="url(#pfa9d19c189)" d="
M61.6078 303.3
L74.6716 303.3
L87.7354 303.3
L100.799 303.3
L113.863 303.3
L126.927 303.3
L139.99 303.3
L153.054 303.3
L166.118 303.3
L179.182 303.3
L192.246 303.3
L205.309 303.3
L218.373 303.3
L231.437 303.3
L244.501 303.3
L257.564 303.3
L270.628 303.3
L283.692 303.3
L296.756 303.3
L309.82 303.3
L322.883 303.3
L335.947 303.3
L349.011 274.936
L362.075 259.133
L375.138 245.269
L388.202 232.632
L401.266 220.964
L414.33 210.12
L427.394 199.999
L440.457 190.522
L453.521 181.624
L466.585 173.251
L479.649 165.355
L492.712 157.897
L505.776 150.839
L518.84 144.15
L531.904 137.801
L544.968 131.767
L558.031 126.025
L571.095 120.553
L584.159 115.333
L597.223 110.348
L610.286 105.582
L623.35 101.021
L636.414 96.6527
L649.478 92.4642
L662.541 88.4448
L675.605 84.5845
L688.669 80.8741
L701.733 77.3049" style="fill:none;stroke:#ccb974;stroke-linecap:round;stroke-width:2.0;"/>
   </g>
   <g id="line2d_25">
    <path clip-path="url(#pfa9d19c189)" d="
M61.6078 21.984
L74.6716 24.2828
L87.7354 26.6651
L100.799 29.1356
L113.863 31.6993
L126.927 34.3616
L139.99 37.1282
L153.054 40.0054
L166.118 43.0001
L179.182 46.1194
L192.246 49.3715
L205.309 52.765
L218.373 56.3092
L231.437 60.0145
L244.501 63.8922
L257.564 67.9545
L270.628 72.215
L283.692 76.6886
L296.756 81.3917
L309.82 86.3424
L322.883 91.5609
L335.947 97.0697
L349.011 102.894
L362.075 109.061
L375.138 115.602
L388.202 122.554
L401.266 129.955
L414.33 137.852
L427.394 146.297
L440.457 155.348
L453.521 165.077
L466.585 175.563
L479.649 186.902
L492.712 199.21
L505.776 212.628
L518.84 227.343
L531.904 243.624
L544.968 261.992
L558.031 284.881
L571.095 303.3
L584.159 303.3
L597.223 303.3
L610.286 303.3
L623.35 303.3
L636.414 303.3
L649.478 303.3
L662.541 303.3
L675.605 303.3
L688.669 303.3
L701.733 303.3" style="fill:none;stroke:#64b5cd;stroke-linecap:round;stroke-width:2.0;"/>
   </g>
   <g id="line2d_26">
    <path clip-path="url(#pfa9d19c189)" d="
M61.6078 303.3
L74.6716 303.3
L87.7354 303.3
L100.799 303.3
L113.863 303.3
L126.927 303.3
L139.99 303.3
L153.054 303.3
L166.118 303.3
L179.182 303.3
L192.246 303.3
L205.309 303.3
L218.373 303.3
L231.437 303.3
L244.501 303.3
L257.564 303.3
L270.628 303.3
L283.692 303.3
L296.756 303.3
L309.82 303.3
L322.883 303.3
L335.947 303.3
L349.011 303.3
L362.075 303.3
L375.138 303.3
L388.202 303.3
L401.266 303.3
L414.33 303.3
L427.394 303.3
L440.457 303.3
L453.521 303.3
L466.585 303.3
L479.649 303.3
L492.712 303.3
L505.776 303.3
L518.84 303.3
L531.904 303.3
L544.968 303.3
L558.031 303.3
L571.095 303.3
L584.159 303.3
L597.223 303.3
L610.286 303.3
L623.35 303.3
L636.414 303.3
L649.478 303.3
L662.541 303.3
L675.605 303.3
L688.669 146.438
L701.733 26.3193" style="fill:none;stroke:#4c72b0;stroke-linecap:round;stroke-width:2.0;"/>
   </g>
   <g id="line2d_27">
    <path clip-path="url(#pfa9d19c189)" d="
M61.6078 303.3
L74.6716 303.3
L87.7354 303.3
L100.799 303.3
L113.863 303.3
L126.927 303.3
L139.99 303.3
L153.054 303.3
L166.118 303.3
L179.182 290.451
L192.246 277.261
L205.309 267.362
L218.373 258.458
L231.437 250.172
L244.501 242.356
L257.564 234.935
L270.628 227.86
L283.692 221.096
L296.756 214.618
L309.82 208.402
L322.883 202.432
L335.947 196.69
L349.011 191.163
L362.075 185.838
L375.138 180.703
L388.202 175.748
L401.266 170.963
L414.33 166.339
L427.394 161.867
L440.457 157.541
L453.521 153.353
L466.585 149.297
L479.649 145.366
L492.712 141.554
L505.776 137.856
L518.84 134.268
L531.904 130.783
L544.968 127.398
L558.031 124.109
L571.095 120.911
L584.159 117.8
L597.223 114.774
L610.286 111.828
L623.35 108.96
L636.414 106.166
L649.478 103.443
L662.541 100.79
L675.605 98.2026
L688.669 95.6791
L701.733 93.2171" style="fill:none;stroke:#55a868;stroke-linecap:round;stroke-width:2.0;"/>
   </g>
   <g id="line2d_28">
    <path clip-path="url(#pfa9d19c189)" d="
M61.6078 303.3
L74.6716 303.3
L87.7354 303.3
L100.799 303.3
L113.863 303.3
L126.927 303.3
L139.99 303.3
L153.054 303.3
L166.118 303.3
L179.182 303.3
L192.246 303.3
L205.309 303.3
L218.373 303.3
L231.437 303.3
L244.501 303.3
L257.564 303.3
L270.628 303.3
L283.692 303.3
L296.756 303.3
L309.82 303.3
L322.883 303.3
L335.947 303.3
L349.011 303.3
L362.075 303.3
L375.138 261.219
L388.202 235.37
L401.266 213.362
L414.33 194.136
L427.394 177.137
L440.457 161.978
L453.521 148.367
L466.585 136.076
L479.649 124.919
L492.712 114.744
L505.776 105.428
L518.84 96.8641
L531.904 88.9657
L544.968 81.6577
L558.031 74.8761
L571.095 68.566
L584.159 62.6797
L597.223 57.1759
L610.286 52.0184
L623.35 47.1755
L636.414 42.6193
L649.478 38.3251
L662.541 34.2708
L675.605 30.4368
L688.669 26.8058
L701.733 23.3619" style="fill:none;stroke:#c44e52;stroke-linecap:round;stroke-width:2.0;"/>
   </g>
   <g id="patch_3">
    <path d="
M61.6078 303.3
L701.733 303.3" style="fill:none;stroke:#262626;stroke-linecap:square;stroke-linejoin:miter;stroke-width:1.25;"/>
   </g>
   <g id="patch_4">
    <path d="
M61.6078 303.3
L61.6078 16.2" style="fill:none;stroke:#262626;stroke-linecap:square;stroke-linejoin:miter;stroke-width:1.25;"/>
   </g>
  </g>
 </g>
 <defs>
  <clipPath id="pfa9d19c189">
   <rect height="287.1" width="640.125" x="61.6078125" y="16.2"/>
  </clipPath>
 </defs>
</svg>
